<?xml version="1.0" encoding="UTF-8"?>
<svg width="48px" height="40px" viewBox="0 0 48 40" version="1.1" xmlns="http://www.w3.org/2000/svg" xmlns:xlink="http://www.w3.org/1999/xlink">
    <!-- Generator: Sketch 41.2 (35397) - http://www.bohemiancoding.com/sketch -->
    <title>iPad Pro Landscape</title>
    <desc>Created with Sketch.</desc>
    <defs></defs>
    <g id="Page-1" stroke="none" stroke-width="1" fill="none" fill-rule="evenodd">
        <g id="iPad-Pro-Landscape" fill="#BE2F3D">
            <g id="HRinfo_logo-01" transform="translate(5.000000, -10.000000)">
                <g id="Group" transform="translate(18.387755, 0.146839)">
                    <path d="M12.36793,22.496796 L8.93002915,22.496796 L8.93002915,28.4584626 L12.36793,28.4584626 C14.7795918,28.4584626 15.5492711,27.7903448 15.5492711,25.4262356 C15.5492711,23.1135201 14.7795918,22.496796 12.36793,22.496796 Z" id="Shape"></path>
                    <path d="M0.895626822,0.205574713 L0.895626822,70.7722414 L24.8956268,70.7722414 L24.8956268,0.205574713 L0.895626822,0.205574713 Z M16.0110787,37.6065374 L14.574344,32.3129885 C14.1638484,31.0795402 13.496793,30.6169971 12.419242,30.6169971 L8.93002915,30.6169971 L8.93002915,37.657931 L6.46705539,37.657931 L6.46705539,20.5952299 C8.36559767,20.3896552 9.6483965,20.3896552 12.419242,20.3896552 C16.4215743,20.3896552 18.0635569,21.5203161 18.0635569,25.3234483 C18.0635569,27.9959195 17.1912536,29.3835489 14.9335277,29.6919109 L14.9335277,29.7946983 C15.754519,30.0516667 16.7294461,30.7711782 17.0886297,32.2615948 L18.6793003,37.657931 L16.0110787,37.657931 L16.0110787,37.6065374 Z" id="Shape"></path>
                </g>
                <g id="Group" transform="translate(0.571429, 19.466667)">
                    <polygon id="Shape" points="13.3411079 18.8100862 10.6728863 18.8100862 10.6728863 10.1759483 2.61690962 10.1759483 2.61690962 18.8100862 0 18.8100862 0 0.462543103 2.66822157 0.462543103 2.66822157 7.86323276 10.6728863 7.86323276 10.6728863 0.462543103 13.3411079 0.462543103"></polygon>
                </g>
            </g>
        </g>
    </g>
</svg>