<?xml version="1.0" standalone="no"?>
<!DOCTYPE svg PUBLIC "-//W3C//DTD SVG 20010904//EN"
 "http://www.w3.org/TR/2001/REC-SVG-20010904/DTD/svg10.dtd">
<svg version="1.0" xmlns="http://www.w3.org/2000/svg"
 width="700.000000pt" height="700.000000pt" viewBox="0 0 700.000000 700.000000"
 preserveAspectRatio="xMidYMid meet">
<metadata>
Created by potrace 1.11, written by Peter Selinger 2001-2013
</metadata>
<g transform="translate(0.000000,700.000000) scale(0.100000,-0.100000)"
fill="#000000" stroke="none">
<path d="M3458 6395 c-2 -1 -46 -5 -98 -8 -1045 -68 -1957 -874 -2171 -1919
-21 -107 -24 -126 -34 -218 -4 -30 -8 -71 -11 -90 -5 -46 -5 -343 1 -395 14
-126 18 -160 36 -256 84 -467 322 -920 665 -1265 310 -311 727 -546 1139 -641
68 -15 235 -43 297 -50 174 -18 528 -6 655 21 36 8 63 13 104 20 71 11 256 68
368 113 775 310 1335 992 1486 1810 33 179 40 256 39 458 0 190 -5 248 -34
420 -49 285 -161 585 -311 832 -42 69 -168 250 -191 275 -7 7 -28 31 -47 53
-264 313 -632 565 -1026 705 -80 28 -166 54 -218 65 -10 2 -26 6 -35 9 -43 13
-247 45 -327 52 -74 5 -283 12 -287 9z m32 -290 l0 -225 -57 -1 c-32 0 -67 -2
-78 -4 -11 -2 -56 -9 -100 -15 -357 -51 -721 -221 -989 -463 l-49 -44 -149
151 c-81 83 -148 155 -148 159 0 10 34 42 135 127 244 204 531 357 834 445
103 29 163 43 316 70 17 3 62 8 100 11 39 4 71 7 72 8 1 0 26 2 57 4 l56 3 0
-226z m336 205 c471 -58 924 -267 1274 -589 l65 -59 -145 -146 c-80 -80 -147
-146 -151 -146 -3 0 -6 12 -6 28 -1 55 -3 63 -26 71 -15 6 -26 23 -34 52 -15
55 -81 129 -115 129 -14 0 -35 11 -48 25 -24 26 -52 34 -135 39 -41 3 -55 -1
-78 -20 l-28 -24 -59 30 c-123 62 -346 133 -490 155 -25 4 -53 9 -63 11 -19 3
-164 16 -207 18 l-25 1 0 223 0 223 91 -5 c50 -3 131 -10 180 -16z m-343 -499
c4 -1 6 -85 5 -188 -3 -156 -5 -186 -18 -188 -8 -1 -49 -5 -90 -9 -252 -21
-531 -138 -751 -316 l-96 -78 -131 132 -132 133 58 54 c31 30 82 72 112 94 30
22 57 42 60 45 13 15 145 92 231 135 193 98 412 160 634 182 33 3 61 6 62 8 2
1 13 1 25 -1 13 -1 26 -3 31 -3z m242 -6 c174 -15 438 -86 570 -153 37 -19 47
-33 33 -49 -8 -10 -6 -13 6 -13 24 0 66 -48 66 -75 0 -21 29 -100 30 -81 0 5
7 3 16 -5 12 -9 14 -24 10 -58 -6 -40 11 -121 25 -123 2 0 21 8 41 18 36 17
38 17 59 -2 28 -25 36 -42 44 -92 5 -38 3 -45 -31 -81 -34 -36 -39 -38 -51
-23 -15 20 -17 52 -3 52 6 0 10 5 10 10 0 6 -6 10 -13 10 -7 0 -17 14 -22 32
-6 17 -17 34 -25 38 -8 4 -25 12 -37 18 -13 7 -34 12 -47 12 -18 0 -33 14 -61
55 -20 30 -40 55 -46 55 -15 0 -11 -17 6 -24 9 -3 15 -19 15 -41 0 -20 5 -45
11 -57 6 -11 8 -22 6 -25 -8 -7 -117 59 -111 68 6 10 64 17 64 7 0 -5 5 -6 10
-3 6 4 -2 23 -21 47 -27 33 -34 37 -41 24 -5 -9 -17 -16 -26 -16 -9 0 -29 -7
-45 -15 -25 -13 -29 -12 -46 7 -11 11 -24 17 -29 14 -6 -3 -34 3 -64 13 -115
43 -262 73 -413 85 -27 2 -52 5 -55 5 -5 1 -6 374 -1 377 2 2 102 -5 166 -11z
m1671 -410 c41 -55 77 -104 82 -110 26 -33 119 -200 160 -287 90 -188 151
-373 191 -578 25 -129 28 -154 37 -302 l7 -118 -222 0 -221 0 -1 38 c-5 227
-62 481 -158 700 -32 72 -33 92 -6 92 8 0 17 4 20 10 9 15 -32 88 -61 106 -14
9 -23 23 -20 30 3 7 -2 18 -10 24 -8 7 -14 17 -14 22 0 12 -67 78 -80 78 -5 0
-10 7 -10 15 0 9 -11 20 -24 25 -13 5 -27 18 -31 30 -7 23 -62 77 -86 85 -14
5 -39 44 -39 62 0 3 66 73 148 155 l147 150 59 -64 c32 -35 92 -108 132 -163z
m-3383 66 c81 -82 147 -153 147 -157 0 -5 -18 -28 -39 -51 -289 -310 -479
-781 -490 -1211 l-1 -42 -212 2 -213 3 0 40 c0 48 12 198 19 240 3 17 8 50 11
75 17 129 100 412 157 540 100 224 221 422 354 579 43 51 86 101 94 112 8 10
17 18 20 19 3 0 72 -67 153 -149z m1477 -296 c0 -113 -3 -205 -7 -206 -162
-18 -312 -64 -430 -133 -57 -34 -162 -110 -173 -128 -3 -4 -71 57 -150 137
-164 164 -159 143 -50 230 223 178 496 285 773 303 l37 3 0 -206z m225 190
c176 -31 309 -72 439 -138 89 -44 218 -131 278 -186 l53 -48 -142 -142 -142
-142 -64 50 c-147 116 -340 191 -527 206 -25 2 -47 4 -50 4 -4 1 -6 94 -5 207
l0 206 65 -6 c36 -3 79 -8 95 -11z m-1235 -377 c0 -4 -16 -24 -35 -45 -53 -56
-178 -248 -215 -328 -87 -190 -135 -377 -142 -552 l-2 -53 -188 0 -188 0 4 90
c3 50 10 116 15 148 6 31 13 73 16 92 48 287 236 667 433 872 l45 47 129 -132
c70 -73 128 -135 128 -139z m2211 63 c11 -18 24 -28 39 -27 17 1 29 -10 45
-39 13 -22 30 -41 39 -43 9 -2 16 -8 16 -13 0 -5 10 -9 23 -9 12 0 27 -8 34
-19 7 -11 21 -17 36 -16 26 3 51 -24 128 -133 46 -67 53 -66 121 17 9 11 14 8
26 -14 31 -59 90 -235 115 -340 33 -140 40 -189 51 -357 l3 -48 -188 0 -189 0
-1 33 c-1 44 -8 112 -18 176 -6 41 -5 66 6 98 17 50 5 78 -28 68 -12 -4 -19
-1 -19 6 0 27 -86 246 -108 276 -16 22 -22 39 -17 53 8 24 -18 70 -38 70 -18
0 -49 37 -66 77 -7 17 -35 50 -62 73 -27 23 -49 47 -49 54 0 12 68 86 79 86 3
0 13 -13 22 -29z m-141 -123 c0 -5 11 -19 25 -30 14 -11 25 -28 25 -39 0 -10
6 -19 13 -19 14 0 64 -58 85 -97 17 -31 15 -51 -9 -81 l-21 -27 24 -18 c13
-10 43 -32 68 -50 37 -27 51 -48 79 -111 l33 -79 -29 -23 c-16 -12 -37 -41
-47 -63 -18 -38 -69 -76 -88 -65 -11 7 -10 52 2 59 32 20 -15 105 -58 105 -34
0 -46 -8 -76 -49 -22 -29 -25 -31 -40 -16 -23 23 -21 44 4 38 29 -8 16 24 -13
33 -34 10 -57 35 -57 61 0 14 -7 26 -17 29 -10 3 -25 8 -33 12 -20 7 -28 9
-41 11 -5 0 -7 6 -4 11 4 6 10 8 15 5 12 -8 21 10 14 29 -3 9 -17 16 -31 16
-13 0 -22 -4 -19 -8 2 -4 1 -14 -5 -22 -5 -9 -9 -10 -9 -3 0 6 -21 37 -46 68
l-47 57 143 143 c131 131 160 154 160 123z m-1757 -311 c-58 -66 -163 -240
-163 -270 0 -16 -26 -35 -57 -41 -25 -6 -32 -13 -35 -34 -2 -22 -10 -28 -43
-35 -22 -4 -47 -13 -55 -20 -23 -19 -58 -96 -71 -154 l-11 -53 -103 0 -103 0
4 63 c19 278 135 569 322 801 l55 68 145 -145 145 -145 -30 -35z m697 96 l0
-188 -66 -13 c-67 -13 -164 -55 -211 -92 -14 -11 -30 -20 -35 -20 -5 0 -66 57
-135 128 l-125 127 44 39 c116 103 334 194 494 204 l34 3 0 -188z m221 171
c46 -9 122 -31 169 -51 81 -33 233 -125 259 -157 15 -18 5 -41 -12 -28 -18 15
-72 7 -109 -16 -24 -15 -46 -19 -80 -17 -51 4 -64 -10 -24 -24 13 -5 26 -16
29 -25 4 -10 13 -13 24 -10 14 5 15 4 4 -4 -10 -7 -21 -6 -36 4 -19 12 -24 11
-49 -12 -15 -15 -25 -32 -22 -40 3 -8 -2 -30 -11 -48 l-16 -34 -68 36 c-56 29
-66 37 -53 46 21 16 26 66 7 66 -20 0 -54 -19 -73 -41 -12 -14 -24 -17 -55
-13 l-41 6 0 189 0 189 37 0 c20 0 74 -7 120 -16z m364 -283 c3 -5 -5 -21 -18
-34 -20 -22 -25 -24 -46 -13 -23 13 -23 13 -2 19 11 3 21 12 21 21 0 17 35 22
45 7z m167 -33 c43 -50 46 -58 17 -51 -14 4 -25 0 -31 -11 -5 -9 -15 -16 -22
-16 -21 0 -41 -30 -39 -59 2 -22 0 -20 -11 9 -11 31 -11 39 5 69 14 26 16 38
7 48 -8 10 -6 18 7 33 10 11 20 20 23 20 3 0 23 -19 44 -42z m-1240 -97 c121
-124 126 -130 108 -146 -12 -11 -36 -17 -67 -17 -30 0 -55 -6 -66 -16 -14 -12
-17 -13 -13 -1 7 17 -23 55 -58 72 -30 16 -149 14 -154 -2 -4 -13 -42 -15 -42
-2 0 34 136 241 158 241 4 0 65 -58 134 -129z m465 -27 c-3 -3 -12 -4 -19 -1
-8 3 -5 6 6 6 11 1 17 -2 13 -5z m-57 -8 c0 -2 -7 -7 -16 -10 -8 -3 -12 -2 -9
4 6 10 25 14 25 6z m245 -6 c8 -13 -5 -13 -25 0 -13 8 -13 10 2 10 9 0 20 -4
23 -10z m-348 -42 c-2 -7 -10 -12 -16 -10 -14 3 -14 -11 0 -25 11 -11 -31 -35
-86 -49 -28 -7 -29 -6 -15 11 18 22 102 84 113 85 5 0 7 -6 4 -12z m153 -84
c0 -8 7 -15 15 -15 8 -1 18 -2 23 -3 4 -1 24 -5 44 -9 36 -8 77 -48 82 -82 3
-18 16 -32 16 -17 0 15 26 16 35 2 3 -5 8 -18 10 -27 17 -82 17 -83 1 -89 -22
-8 -21 -59 2 -83 32 -36 42 -50 41 -58 -4 -21 3 -24 24 -11 41 26 59 30 55 10
-2 -9 -8 -17 -13 -18 -6 0 -25 -4 -42 -8 -33 -8 -42 -19 -23 -31 17 -10 11
-25 -7 -18 -11 4 -14 3 -9 -5 4 -7 14 -12 22 -12 18 0 18 -4 -3 -43 -9 -18
-16 -38 -14 -45 2 -11 -11 -13 -59 -9 -52 4 -65 2 -81 -14 -10 -10 -19 -22
-20 -26 -2 -26 -10 -50 -28 -89 -12 -24 -21 -55 -21 -69 0 -14 -3 -25 -7 -26
-5 0 -16 -2 -25 -4 -48 -9 -186 47 -250 100 l-28 24 30 15 c17 9 43 23 59 31
15 8 50 18 77 21 27 3 54 10 61 15 14 13 63 133 63 157 0 33 -25 54 -71 59
-24 3 -48 10 -54 15 -7 7 -3 9 12 5 14 -3 24 1 28 11 7 18 -3 29 -30 34 -16 2
-27 -11 -55 -68 -19 -38 -56 -95 -81 -125 -26 -29 -56 -69 -66 -87 -23 -37
-24 -36 -67 42 -15 27 -25 54 -23 61 8 18 90 11 97 -10 5 -15 7 -15 22 2 8 10
23 34 33 53 10 19 24 43 32 52 13 15 11 20 -22 53 -27 27 -35 44 -33 63 4 39
22 33 26 -8 4 -39 21 -66 23 -35 1 11 0 33 -1 49 -1 19 2 26 10 21 18 -11 70
-17 70 -8 0 20 -23 32 -42 22 -12 -6 -25 -6 -38 1 -11 6 -25 8 -31 5 -5 -4
-16 -1 -24 5 -19 16 -2 50 25 50 11 0 24 9 30 20 6 10 28 24 49 30 21 5 59 26
85 45 39 31 46 41 46 71 0 21 4 33 10 29 6 -3 10 -13 10 -21z m1414 -73 c-12
-34 -11 -88 2 -100 2 -3 10 4 18 14 13 18 14 18 19 -1 4 -10 8 -44 9 -74 l3
-55 -147 -3 c-144 -2 -148 -2 -148 18 0 14 10 24 29 31 30 10 41 32 41 82 0
15 6 27 13 28 98 5 127 13 127 34 0 11 37 65 45 65 1 0 -3 -17 -11 -39z
m-2324 -151 c6 -10 10 -30 10 -44 0 -24 -4 -26 -39 -26 -22 0 -52 4 -66 10
-22 8 -26 15 -23 42 4 42 37 61 79 46 16 -6 34 -18 39 -28z m578 -89 c3 -8 -3
-18 -12 -23 -9 -5 -16 -16 -16 -23 0 -17 21 -20 37 -4 14 14 60 1 60 -16 0
-11 -5 -11 -20 -3 -12 6 -22 6 -26 1 -3 -6 -27 -13 -52 -16 l-46 -6 -2 53 -2
53 37 -1 c22 -1 40 -8 42 -15z m-1504 -51 c2 -3 7 -46 10 -95 9 -151 63 -424
96 -486 21 -39 -50 -38 -90 2 -16 16 -32 29 -37 29 -5 0 -28 -18 -53 -40 -24
-21 -47 -37 -51 -34 -4 2 -10 18 -14 34 -7 31 -20 37 -45 19 -11 -8 -12 -12
-2 -16 6 -2 12 -10 12 -15 0 -6 -3 -9 -6 -5 -11 11 -35 -22 -34 -46 1 -12 2
-29 1 -37 -1 -13 -2 -13 -11 0 -14 22 -23 5 -10 -20 8 -14 8 -25 1 -34 -7 -8
-5 -15 8 -23 11 -7 17 -21 15 -42 -1 -22 3 -32 17 -36 11 -4 17 -10 14 -15 -4
-7 22 -70 30 -70 32 0 46 35 23 58 -7 7 -9 12 -5 12 4 0 3 9 -2 19 -8 15 -7
20 5 25 24 9 34 7 34 -7 0 -26 56 -68 86 -65 17 2 29 -2 30 -9 1 -7 2 -18 3
-23 0 -6 25 -21 54 -34 43 -20 56 -33 74 -70 30 -62 63 -82 109 -68 33 10 35
9 49 -24 8 -19 21 -34 29 -34 8 0 21 -9 29 -20 8 -11 17 -17 20 -14 10 11 78
-46 71 -58 -5 -7 -2 -9 8 -6 17 7 72 -36 66 -51 -4 -14 -290 -301 -299 -301
-3 0 -40 39 -80 86 -320 372 -515 826 -565 1315 -7 70 -12 192 -8 199 3 7 411
6 418 0z m463 -34 c2 -54 11 -141 19 -170 5 -19 2 -23 -18 -23 -49 -1 -56 -4
-68 -33 -7 -17 -26 -38 -42 -46 -17 -9 -27 -18 -24 -21 3 -3 -1 -17 -8 -32 -8
-15 -12 -54 -11 -96 3 -108 -14 -142 -75 -150 -28 -3 -33 0 -47 33 -57 134
-125 552 -94 571 5 4 90 6 188 6 l178 0 2 -39z m206 -44 c-47 -86 -57 -138
-32 -168 17 -20 -4 -35 -44 -30 -35 4 -34 3 -42 56 -3 25 -8 52 -11 61 -9 32
-13 154 -4 159 4 3 46 5 93 5 l85 0 -45 -83z m250 74 c10 -8 17 -26 17 -45 0
-29 -2 -31 -37 -32 -21 -1 -44 -1 -50 0 -14 2 -17 -11 -6 -23 4 -4 8 -21 8
-39 1 -45 32 -50 48 -8 7 19 18 31 29 31 10 0 18 -3 19 -7 2 -26 12 -62 39
-145 32 -102 96 -222 165 -309 l44 -56 -140 -143 -140 -144 -22 22 -22 23 23
6 c23 6 24 9 17 62 -4 31 -10 58 -14 61 -43 32 -62 154 -29 190 22 23 23 40 3
40 -8 0 -16 5 -16 10 -1 6 -3 13 -4 18 -1 4 -6 22 -10 40 -4 17 -12 32 -17 32
-5 0 -8 6 -7 13 4 33 -1 39 -31 32 -34 -7 -35 -6 -19 28 9 19 8 30 -5 49 -9
14 -14 27 -11 30 3 3 -6 8 -20 12 -19 5 -25 13 -25 33 0 15 -5 42 -12 60 -15
41 -4 64 33 70 43 6 50 11 43 37 -5 22 -1 25 58 44 78 25 70 24 91 8z m2379
-31 c-2 -22 -5 -51 -7 -65 -1 -14 -6 -47 -10 -75 -29 -225 -191 -557 -353
-723 l-23 -24 -39 38 c-39 40 -61 93 -52 129 2 11 6 37 9 58 3 20 9 40 14 43
13 7 11 95 -2 133 -11 30 -32 41 -44 21 -3 -5 -14 -10 -23 -10 -10 0 -23 -9
-29 -20 -7 -10 -22 -24 -33 -30 -16 -8 -12 1 15 39 20 28 40 50 43 49 13 -3
52 13 52 22 0 5 11 21 24 37 13 15 29 46 36 68 15 49 30 67 30 38 0 -34 32
-38 56 -8 18 23 25 25 41 16 11 -5 23 -8 26 -5 3 3 20 7 39 9 72 7 123 17 133
26 7 7 3 23 -11 49 l-21 38 23 6 c27 7 32 37 9 56 -19 16 -45 6 -52 -20 -3
-11 -8 -20 -12 -20 -15 0 -51 32 -51 47 0 8 -13 38 -28 66 l-29 52 136 0 136
0 -3 -40z m440 -30 c-8 -174 -42 -349 -102 -518 -38 -108 -112 -267 -150 -323
-17 -23 -30 -46 -30 -50 0 -10 -146 -205 -186 -247 -37 -39 -74 -46 -56 -10
20 39 -8 154 -45 189 -15 14 -31 23 -37 21 -6 -2 -17 -25 -25 -50 -8 -26 -17
-47 -21 -47 -3 0 -32 27 -64 60 -62 64 -62 63 -11 118 151 167 306 491 331
692 2 19 6 44 9 56 2 11 7 54 11 95 3 41 10 76 14 79 4 3 88 5 187 5 l178 0
-3 -70z m504 -50 c-3 -66 -7 -129 -10 -140 -2 -11 -7 -40 -10 -65 -60 -394
-227 -790 -463 -1090 -77 -99 -159 -190 -171 -190 -4 0 -76 69 -161 154 l-153
154 53 58 c61 66 157 197 213 291 73 123 179 372 200 473 3 14 10 43 16 65 16
64 41 234 46 315 2 41 6 80 8 85 2 6 85 10 221 10 l217 0 -6 -120z m-3150 -45
c17 0 31 -10 45 -34 15 -26 25 -33 41 -28 14 3 19 1 14 -7 -12 -19 4 -49 38
-71 43 -26 49 -25 44 5 -3 14 -1 25 3 25 5 0 9 -18 9 -39 0 -23 8 -48 19 -62
20 -25 29 -24 35 7 10 49 45 138 59 145 11 6 25 -6 56 -47 22 -30 41 -58 41
-62 0 -4 -58 -65 -129 -136 l-128 -128 -51 68 c-64 85 -125 207 -151 304 -12
41 -21 76 -21 77 0 1 12 -2 26 -7 14 -6 36 -10 50 -10z m919 -211 c0 -44 -3
-54 -18 -57 -16 -3 -17 -1 -8 16 7 14 8 29 1 46 -11 29 -3 59 14 53 6 -2 11
-27 11 -58z m501 -39 c46 0 57 -15 34 -50 -8 -13 -14 -10 -35 15 -13 17 -24
24 -25 18 0 -23 -36 -14 -48 12 -9 20 -8 26 6 34 13 8 18 6 20 -10 3 -15 12
-19 48 -19z m-931 11 c26 -29 139 -81 206 -95 57 -11 88 -26 56 -26 -9 0 -21
-9 -27 -20 -11 -20 3 -30 15 -10 12 20 35 10 35 -14 0 -25 -41 -66 -66 -66 -9
0 -12 -13 -11 -42 2 -43 2 -43 -35 -46 -33 -3 -37 -7 -49 -47 -10 -33 -21 -47
-46 -59 -29 -14 -37 -14 -75 0 -83 29 -200 101 -273 167 -19 17 -17 20 110
147 71 72 132 130 136 130 3 0 14 -9 24 -19z m363 -29 c2 -7 -6 -12 -17 -12
-21 0 -27 11 -14 24 9 9 26 2 31 -12z m342 -138 c0 -16 -6 -24 -18 -24 -9 0
-34 -9 -54 -20 l-37 -19 2 27 c2 18 9 28 22 30 11 3 28 13 38 23 22 23 47 14
47 -17z m-26 -80 c25 -10 19 -32 -16 -64 -32 -29 -107 -65 -81 -39 9 9 10 16
2 26 -9 10 -5 15 15 23 14 5 26 15 26 23 0 14 19 37 31 37 4 0 14 -3 23 -6z
m-177 -73 c27 -27 36 -42 27 -45 -7 -3 -16 4 -19 14 -3 11 -20 31 -36 45 -17
14 -26 25 -21 25 5 0 27 -18 49 -39z m-773 -19 c64 -51 185 -124 224 -136 25
-8 29 -21 8 -33 -18 -10 -60 -82 -53 -90 8 -8 -31 -83 -43 -83 -22 0 -7 -24
47 -81 32 -32 64 -73 73 -91 10 -21 26 -36 45 -41 17 -5 44 -13 61 -18 18 -5
68 -10 113 -11 57 -1 81 -5 81 -13 0 -13 -74 -13 -145 -1 -16 3 -48 8 -70 12
-174 27 -408 130 -572 252 -133 100 -135 77 24 241 76 77 140 141 142 141 2 0
31 -22 65 -48z m680 22 c9 -3 16 -13 16 -21 0 -10 6 -12 20 -8 22 7 56 -13 55
-33 0 -20 -26 -32 -69 -32 -30 0 -43 6 -60 27 -24 31 -26 43 -13 61 10 13 27
15 51 6z m-2184 -44 c0 -5 -5 -10 -11 -10 -5 0 -7 5 -4 10 3 6 8 10 11 10 2 0
4 -4 4 -10z m2700 -35 c7 -8 28 -17 49 -21 47 -9 144 -44 137 -51 -2 -3 -44 8
-93 25 -48 16 -104 33 -123 37 -30 7 -32 9 -15 16 29 11 31 11 45 -6z m346
-184 c-4 -6 -11 -11 -15 -11 -11 0 -21 37 -13 45 9 9 35 -22 28 -34z m146
-128 c42 -43 81 -90 87 -104 5 -14 25 -33 44 -42 64 -31 63 -37 -19 -108 -80
-67 -192 -150 -258 -189 l-38 -23 7 22 c9 28 9 104 0 131 -5 15 0 28 19 45 14
13 26 31 26 38 0 8 7 17 15 21 39 15 2 80 -85 150 l-24 19 35 27 c19 16 50 42
69 59 19 17 37 31 40 31 3 0 40 -35 82 -77z m-1739 -159 c165 -85 376 -139
572 -148 l30 -1 3 -197 2 -197 -82 4 c-45 2 -94 7 -108 10 -14 2 -40 7 -57 10
-77 12 -102 17 -178 37 -209 54 -462 179 -626 308 -120 94 -170 143 -159 154
7 7 13 7 18 1 10 -14 116 -65 135 -65 8 0 43 16 78 35 54 31 69 35 114 32 54
-5 74 3 94 41 8 15 9 28 1 41 -17 33 -12 34 43 1 28 -17 83 -47 120 -66z
m-653 36 c0 -5 -4 -10 -10 -10 -5 0 -10 5 -10 10 0 6 5 10 10 10 6 0 10 -4 10
-10z m1360 -110 c12 -8 11 -10 -7 -10 -12 0 -25 5 -28 10 -8 13 15 13 35 0z
m1570 -313 c0 -27 -258 -233 -406 -325 -188 -116 -504 -250 -660 -278 -15 -3
-54 -11 -88 -19 -107 -24 -249 -41 -366 -44 l-85 -2 0 220 -1 221 26 1 c89 4
134 8 200 19 135 21 142 21 160 5 10 -9 30 -18 46 -21 16 -3 33 -9 39 -15 17
-17 57 -9 87 16 16 14 36 26 44 26 8 1 19 3 24 4 6 1 14 3 19 4 5 0 11 10 14
20 3 11 20 26 39 34 18 8 48 28 67 44 18 17 50 36 72 42 26 8 43 20 49 35 5
13 45 46 91 75 94 60 213 150 278 210 l44 41 153 -152 c85 -84 154 -157 154
-161z m-2904 272 c80 -86 322 -247 471 -315 148 -68 339 -129 463 -149 25 -4
52 -9 60 -10 24 -4 141 -17 185 -21 22 -1 43 -3 48 -3 4 -1 7 -101 7 -222 l0
-222 -107 6 c-124 8 -299 33 -365 53 -10 3 -30 7 -45 10 -37 7 -289 90 -333
111 -196 90 -338 170 -455 256 -93 69 -95 71 -192 156 l-85 74 154 154 c84 84
155 153 159 153 3 0 18 -14 35 -31z m1425 -60 c28 -9 42 -21 54 -45 8 -18 20
-36 25 -39 5 -3 5 -19 -1 -38 -18 -65 -13 -79 59 -147 l67 -64 -65 -13 c-36
-8 -110 -15 -165 -16 l-100 -2 -1 180 c-1 99 1 183 3 188 6 11 81 8 124 -4z"/>
<path d="M4037 6139 c7 -7 15 -10 18 -7 3 3 -2 9 -12 12 -14 6 -15 5 -6 -5z"/>
<path d="M3861 6105 c-34 -15 -135 -44 -181 -51 -53 -9 -75 -16 -82 -27 -13
-20 -9 -27 16 -27 38 0 89 -21 115 -47 30 -31 35 -25 16 20 -23 55 -20 79 8
72 44 -11 62 -12 102 -3 22 5 60 11 85 14 40 4 53 11 51 29 -1 3 -3 5 -6 5 -3
1 -23 7 -46 15 -23 8 -42 15 -43 15 0 -1 -16 -7 -35 -15z"/>
<path d="M4570 5734 c0 -8 5 -12 11 -8 13 8 59 -15 77 -38 21 -28 44 -23 41
10 -5 43 -17 52 -75 52 -42 0 -54 -3 -54 -16z"/>
<path d="M3949 5669 c29 -24 43 -24 39 -2 -2 11 -14 18 -32 19 l-30 1 23 -18z"/>
<path d="M3836 5665 c4 -8 8 -15 10 -15 2 0 4 7 4 15 0 8 -4 15 -10 15 -5 0
-7 -7 -4 -15z"/>
<path d="M3884 5599 c-3 -6 -1 -16 5 -22 8 -8 11 -5 11 11 0 24 -5 28 -16 11z"/>
<path d="M3990 5484 c0 -8 5 -12 10 -9 6 3 10 10 10 16 0 5 -4 9 -10 9 -5 0
-10 -7 -10 -16z"/>
<path d="M4028 5448 c-14 -14 -15 -18 -4 -18 8 0 17 7 20 16 9 23 4 24 -16 2z"/>
<path d="M4050 5410 c0 -5 7 -10 15 -10 8 0 15 5 15 10 0 6 -7 10 -15 10 -8 0
-15 -4 -15 -10z"/>
<path d="M4106 5405 c4 -8 11 -15 16 -15 6 0 5 6 -2 15 -7 8 -14 15 -16 15 -2
0 -1 -7 2 -15z"/>
<path d="M4130 5355 c0 -8 7 -15 15 -15 8 0 15 7 15 15 0 8 -7 15 -15 15 -8 0
-15 -7 -15 -15z"/>
<path d="M3052 4998 c5 -15 66 -29 73 -17 3 4 -3 13 -14 18 -27 15 -64 14 -59
-1z"/>
<path d="M4746 4923 c-5 -6 35 -53 45 -53 4 0 7 8 6 18 -1 18 -41 45 -51 35z"/>
<path d="M4820 4836 c-15 -29 1 -66 29 -66 28 0 32 12 11 30 -12 10 -18 24
-14 33 9 25 -12 28 -26 3z"/>
<path d="M4858 4733 c-23 -6 -23 -20 0 -32 23 -12 45 1 36 22 -3 9 -9 16 -13
16 -3 -1 -14 -3 -23 -6z"/>
<path d="M4890 4673 c0 -13 5 -23 10 -23 13 0 13 11 0 30 -8 12 -10 11 -10 -7z"/>
<path d="M4895 4593 c1 -10 7 -31 14 -48 7 -16 17 -54 23 -83 9 -45 14 -53 32
-50 25 4 27 34 6 113 -17 70 -24 80 -52 83 -19 2 -25 -1 -23 -15z"/>
<path d="M4578 4750 c-2 -6 -13 -12 -25 -13 -12 0 -20 -4 -17 -8 2 -4 -5 -9
-16 -12 -36 -9 -23 -30 15 -24 32 5 34 4 25 -14 -6 -11 -21 -19 -35 -19 -16 0
-25 -6 -25 -15 0 -9 -12 -26 -27 -39 -32 -28 -26 -52 15 -58 37 -5 52 0 52 18
0 8 7 17 15 20 13 5 13 9 3 22 -10 12 -10 16 0 19 6 3 12 13 12 24 0 10 7 19
15 19 18 0 18 1 5 34 -6 16 -6 27 0 31 6 4 10 10 10 16 0 12 -17 12 -22 -1z"/>
<path d="M4600 4590 c0 -6 7 -10 15 -10 8 0 15 2 15 4 0 2 -7 6 -15 10 -8 3
-15 1 -15 -4z"/>
<path d="M3400 4564 c0 -8 5 -12 10 -9 6 3 10 10 10 16 0 5 -4 9 -10 9 -5 0
-10 -7 -10 -16z"/>
<path d="M3445 4570 c3 -5 8 -10 11 -10 2 0 4 5 4 10 0 6 -5 10 -11 10 -5 0
-7 -4 -4 -10z"/>
<path d="M3820 4570 c0 -5 9 -10 20 -10 11 0 20 5 20 10 0 6 -9 10 -20 10 -11
0 -20 -4 -20 -10z"/>
<path d="M3291 4140 c-8 -4 -11 -15 -8 -24 8 -20 47 -21 47 -2 0 20 -24 36
-39 26z"/>
<path d="M3280 4012 c0 -5 7 -9 15 -9 8 0 15 4 15 9 0 4 -7 8 -15 8 -8 0 -15
-4 -15 -8z"/>
<path d="M3287 3979 c-18 -11 -23 -34 -8 -43 12 -8 41 28 33 41 -5 8 -13 8
-25 2z"/>
<path d="M3670 3897 c0 -7 7 -22 15 -33 12 -16 14 -17 15 -2 0 23 -11 48 -21
48 -5 0 -9 -6 -9 -13z"/>
<path d="M3564 3825 c-10 -8 -14 -15 -8 -15 6 0 17 7 24 15 16 19 9 19 -16 0z"/>
<path d="M3382 3596 c-1 -23 2 -26 28 -26 51 0 52 32 0 45 -22 5 -26 2 -28
-19z"/>
<path d="M4810 4080 c0 -5 7 -10 16 -10 8 0 12 5 9 10 -3 6 -10 10 -16 10 -5
0 -9 -4 -9 -10z"/>
<path d="M1527 3411 c-6 -26 1 -33 24 -20 10 5 16 16 13 24 -9 21 -31 19 -37
-4z"/>
<path d="M1402 3401 c4 -13 18 -16 19 -4 0 4 -5 9 -11 12 -7 2 -11 -2 -8 -8z"/>
<path d="M1376 3325 c-3 -9 0 -15 9 -15 8 0 15 7 15 15 0 8 -4 15 -9 15 -5 0
-11 -7 -15 -15z"/>
<path d="M1383 3275 c0 -8 4 -12 9 -9 4 3 8 9 8 15 0 5 -4 9 -8 9 -5 0 -9 -7
-9 -15z"/>
<path d="M1495 2990 c3 -5 11 -10 16 -10 6 0 7 5 4 10 -3 6 -11 10 -16 10 -6
0 -7 -4 -4 -10z"/>
<path d="M1595 2880 c-8 -13 3 -30 21 -30 18 0 18 14 0 29 -10 8 -16 9 -21 1z"/>
<path d="M1647 2791 c7 -29 35 -37 31 -9 -2 13 -11 24 -20 26 -12 2 -15 -2
-11 -17z"/>
<path d="M2431 3750 c0 -14 6 -34 14 -44 19 -25 47 -30 43 -8 -2 10 -11 16
-22 14 -13 -3 -17 1 -13 11 3 8 -1 23 -8 34 -14 17 -14 17 -14 -7z"/>
<path d="M2515 3689 c-11 -17 1 -21 15 -4 8 9 8 15 2 15 -6 0 -14 -5 -17 -11z"/>
<path d="M2458 3643 c-2 -10 5 -33 15 -50 16 -27 22 -31 37 -23 30 16 30 23
-1 58 -32 36 -46 40 -51 15z"/>
<path d="M2490 3516 c0 -9 30 -14 35 -6 4 6 -3 10 -14 10 -12 0 -21 -2 -21 -4z"/>
<path d="M2510 3431 c0 -6 5 -13 10 -16 6 -3 10 1 10 9 0 9 -4 16 -10 16 -5 0
-10 -4 -10 -9z"/>
<path d="M4510 3275 c0 -8 4 -15 9 -15 5 0 11 7 15 15 3 9 0 15 -9 15 -8 0
-15 -7 -15 -15z"/>
<path d="M1494 6041 c-118 -62 -193 -118 -279 -206 -121 -125 -205 -297 -222
-454 l-5 -44 54 46 c29 25 93 76 143 114 125 96 206 203 366 491 32 56 52 102
46 102 -7 0 -53 -22 -103 -49z"/>
<path d="M5465 6069 c10 -31 134 -244 201 -344 71 -107 143 -182 246 -258 42
-32 83 -63 90 -70 8 -6 27 -23 42 -37 l28 -25 -6 54 c-4 29 -8 57 -11 61 -2 4
-7 22 -10 40 -9 52 -80 197 -127 259 -90 121 -221 227 -375 305 -40 20 -75 36
-78 36 -4 0 -3 -9 0 -21z"/>
<path d="M1049 5923 c-249 -197 -383 -530 -374 -927 3 -126 13 -257 20 -264 1
-1 17 12 36 29 65 60 134 117 219 177 136 96 306 277 417 442 48 72 111 201
119 245 7 38 6 39 -12 25 -24 -18 -88 -86 -117 -123 -12 -15 -66 -57 -121 -93
-134 -89 -282 -238 -330 -333 -22 -42 -46 -29 -27 16 15 38 48 195 56 268 14
125 87 407 136 523 10 23 17 42 16 42 -2 0 -19 -12 -38 -27z"/>
<path d="M6013 5917 c48 -126 122 -386 131 -457 3 -25 8 -81 11 -125 10 -147
14 -190 24 -222 13 -45 -4 -52 -25 -11 -47 92 -202 248 -331 331 -54 35 -111
81 -127 102 -42 55 -106 115 -122 115 -11 0 -9 -12 7 -55 82 -220 323 -517
540 -665 47 -33 117 -88 155 -124 71 -67 93 -79 95 -48 0 9 2 26 3 37 2 11 6
58 10 105 4 47 9 101 12 120 12 95 11 202 -3 275 -46 246 -168 463 -337 600
-33 26 -47 34 -43 22z"/>
<path d="M609 5427 c-65 -50 -138 -206 -184 -393 -32 -133 -73 -380 -70 -424
5 -61 16 -143 26 -189 5 -24 7 -46 4 -49 -3 -3 -5 0 -5 7 0 7 -7 28 -16 46
-14 30 -20 33 -59 33 -35 0 -45 -4 -50 -19 -4 -10 -10 -19 -15 -19 -10 0 -30
82 -32 133 -1 20 -5 37 -10 37 -5 0 -16 -17 -25 -37 -12 -28 -16 -77 -18 -193
l-2 -155 -76 -169 c-72 -157 -77 -172 -77 -237 0 -69 0 -69 28 -69 26 0 30 7
63 88 l34 87 47 3 c45 3 46 2 53 -30 21 -99 135 -346 218 -473 85 -132 224
-311 234 -302 2 3 6 24 9 48 10 95 38 197 74 269 89 179 148 374 176 580 10
77 12 307 3 321 -15 23 -44 -21 -89 -139 -23 -59 -67 -154 -98 -212 -31 -58
-66 -131 -77 -162 l-21 -58 -37 88 c-20 48 -37 94 -37 102 0 24 85 176 148
263 63 87 200 299 247 381 106 185 201 427 168 426 -15 0 -28 -15 -84 -90 -31
-41 -102 -123 -159 -183 -119 -124 -186 -209 -227 -287 -34 -62 -67 -156 -65
-182 0 -10 -3 -18 -7 -18 -8 0 -8 9 5 195 14 203 9 415 -11 515 -8 37 -18 168
-18 221 0 72 12 142 33 203 10 31 18 56 17 56 -1 0 -9 -6 -18 -13z m-244
-1257 c78 -196 77 -198 -8 -25 -40 83 -71 158 -69 168 7 28 14 14 77 -143z
m-179 -166 c-3 -8 -10 -13 -16 -9 -6 3 -5 16 3 32 9 21 13 23 15 9 2 -9 1 -24
-2 -32z m412 -274 c54 0 54 0 49 -27 -4 -16 -13 -60 -21 -98 -9 -39 -18 -95
-22 -125 -7 -65 -24 -90 -25 -40 0 19 -2 42 -3 50 -2 8 -6 38 -10 65 -8 64
-11 81 -36 176 -23 92 -25 114 -2 47 l16 -48 54 0z"/>
<path d="M6450 5382 c36 -95 40 -212 15 -422 -16 -132 -20 -191 -19 -310 1
-74 5 -171 9 -215 11 -125 12 -175 3 -175 -4 0 -8 9 -8 21 0 30 -47 146 -83
204 -48 76 -100 141 -195 241 -121 126 -152 161 -192 221 -54 81 -82 84 -62 5
25 -93 106 -268 190 -407 33 -54 205 -317 275 -419 15 -23 51 -86 79 -141 48
-96 51 -98 63 -75 7 14 18 50 25 80 7 30 30 102 50 160 62 171 105 370 104
480 -1 32 -8 96 -18 145 -2 11 -7 42 -10 68 -28 203 -126 480 -196 555 -43 45
-51 40 -30 -16z"/>
<path d="M6833 4536 c-3 -68 -38 -165 -120 -336 -137 -283 -156 -327 -180
-400 -27 -85 -58 -237 -67 -324 -3 -33 -8 -62 -11 -64 -5 -6 -7 -2 -11 43 -9
101 -37 280 -50 326 -9 30 -44 108 -79 174 -34 66 -81 167 -104 225 -43 108
-74 161 -88 147 -9 -10 -10 -196 -1 -297 19 -204 71 -382 178 -610 59 -126 69
-161 76 -259 2 -29 5 -55 7 -58 3 -2 31 29 64 69 158 195 226 308 338 563 15
33 62 193 70 234 3 14 7 37 10 51 26 119 30 486 5 534 -24 46 -35 41 -37 -18z"/>
<path d="M940 3650 c-3 -75 -12 -128 -36 -208 -14 -46 -27 -93 -30 -105 -2
-12 -12 -65 -23 -117 -30 -151 -20 -377 24 -525 8 -27 12 -51 11 -53 -8 -8
-49 47 -93 123 -74 127 -181 270 -294 390 -26 28 -68 73 -93 100 -56 60 -149
197 -176 260 -11 25 -21 45 -23 45 -7 0 -1 -160 8 -210 12 -73 12 -74 34 -146
51 -166 182 -374 317 -506 74 -72 91 -84 189 -144 55 -33 114 -83 189 -159
102 -104 108 -108 102 -75 -27 131 -27 220 -1 430 15 125 19 193 20 335 0 141
-8 258 -20 305 -2 8 -7 30 -10 49 -8 50 -43 148 -70 200 l-24 46 -1 -35z"/>
<path d="M6093 3637 c-31 -62 -70 -185 -78 -242 -4 -27 -11 -77 -15 -110 -9
-59 -6 -376 4 -445 2 -19 7 -62 11 -95 25 -246 25 -270 4 -389 -6 -32 -8 -60
-6 -62 2 -2 35 28 73 67 123 128 148 149 229 199 118 71 194 141 294 269 156
200 236 409 246 638 4 86 -5 105 -24 51 -16 -46 -106 -183 -154 -236 -23 -25
-67 -73 -98 -106 -127 -136 -241 -286 -312 -411 -62 -108 -115 -164 -88 -92
33 85 62 371 46 447 -2 13 -7 42 -11 65 -11 74 -34 178 -59 260 -14 44 -28
114 -31 155 -4 41 -7 76 -9 77 -1 2 -11 -16 -22 -40z"/>
<path d="M1136 2818 c3 -232 39 -456 104 -649 45 -136 82 -213 156 -326 30
-45 54 -87 54 -94 0 -6 -60 49 -132 123 -73 74 -167 163 -209 199 -148 126
-195 162 -319 249 -58 41 -127 94 -154 119 -88 83 -131 126 -168 171 -21 24
-38 39 -38 33 0 -28 67 -198 117 -295 218 -429 592 -691 1046 -734 l68 -7 -18
34 c-22 39 -44 110 -50 154 -30 262 -115 525 -255 795 -59 115 -190 330 -201
330 -2 0 -2 -46 -1 -102z"/>
<path d="M5866 2840 c-100 -154 -193 -333 -257 -492 -46 -115 -104 -303 -114
-370 -3 -23 -8 -52 -10 -63 -2 -11 -7 -45 -11 -75 -4 -30 -9 -57 -9 -60 -14
-56 -30 -103 -46 -134 l-20 -39 68 6 c520 48 949 405 1137 946 l36 103 -47
-53 c-93 -104 -189 -191 -288 -262 -230 -164 -370 -282 -552 -464 -79 -78
-143 -137 -143 -131 0 7 20 42 45 79 67 100 114 193 156 310 37 104 84 301 94
396 19 180 26 373 14 373 -5 0 -28 -32 -53 -70z"/>
<path d="M5470 2298 c-213 -186 -396 -405 -527 -634 -105 -183 -140 -229 -257
-331 -32 -28 -44 -44 -35 -47 28 -10 136 -36 173 -42 21 -3 48 -8 60 -10 91
-19 327 -42 388 -38 216 14 419 90 608 227 76 55 256 239 309 316 l44 64 -28
-7 c-16 -4 -57 -27 -92 -51 -34 -24 -77 -50 -95 -59 -102 -47 -242 -89 -388
-117 -78 -15 -154 -37 -407 -117 -122 -39 -239 -74 -260 -78 -35 -6 -37 -6
-24 9 7 10 21 17 30 17 48 0 148 93 226 210 58 88 190 361 243 505 50 135 74
207 70 211 -2 1 -19 -11 -38 -28z"/>
<path d="M1550 2316 c0 -12 97 -271 121 -323 10 -24 19 -45 19 -49 0 -3 30
-65 66 -137 121 -241 203 -347 311 -398 35 -17 62 -33 59 -36 -10 -10 -122 23
-541 158 -33 11 -104 28 -159 39 -220 45 -390 106 -471 170 -48 38 -88 60
-110 60 -23 0 48 -99 148 -206 111 -118 232 -210 390 -295 92 -50 285 -98 407
-102 69 -2 257 10 270 18 3 1 27 6 55 9 78 11 195 35 254 52 l54 16 -25 21
c-132 114 -183 175 -262 317 -128 229 -297 443 -490 618 -55 50 -96 79 -96 68z"/>
<path d="M2938 1246 c-1 -2 -52 -6 -113 -9 -60 -3 -148 -13 -195 -21 -47 -8
-101 -17 -120 -20 -50 -7 -140 -25 -148 -30 -4 -2 -25 -7 -46 -10 -22 -4 -73
-15 -115 -26 -64 -16 -326 -74 -426 -95 -69 -14 -280 -14 -320 0 -69 25 -49 9
47 -38 114 -56 261 -103 373 -121 56 -8 110 -17 145 -21 48 -7 296 -7 345 0
165 22 288 58 525 153 155 62 248 93 330 109 36 7 183 11 198 5 7 -2 -29 -21
-80 -42 -270 -108 -488 -254 -641 -428 -20 -23 -37 -46 -37 -50 0 -6 82 -52
94 -52 1 0 18 21 36 48 48 67 202 219 290 284 164 121 386 225 461 215 51 -7
200 -69 292 -123 150 -87 317 -229 417 -354 24 -30 47 -59 51 -64 6 -6 55 14
98 41 2 1 -9 19 -24 38 -78 104 -220 220 -380 313 -73 42 -279 140 -323 153
-116 34 104 33 239 -1 46 -12 163 -53 259 -92 242 -97 342 -126 520 -153 40
-6 311 -6 353 0 145 19 296 53 384 85 67 25 205 91 200 96 -2 3 -28 -1 -58 -7
-64 -14 -223 -6 -325 15 -38 8 -81 17 -94 20 -14 2 -77 16 -140 31 -244 58
-276 65 -310 71 -19 3 -38 8 -41 10 -3 1 -34 8 -70 14 -35 5 -75 12 -89 14
-14 3 -41 7 -60 10 -19 3 -44 8 -56 10 -79 16 -328 23 -429 11 -113 -13 -240
-36 -332 -61 l-92 -24 -73 19 c-64 18 -172 40 -263 56 -16 3 -75 7 -130 11
-55 3 -105 7 -112 9 -6 2 -13 2 -15 1z"/>
</g>
</svg>
