<?xml version="1.0" encoding="UTF-8" standalone="no"?>
<svg width="215px" height="63px" viewBox="0 0 215 63" version="1.1" xmlns="http://www.w3.org/2000/svg" xmlns:xlink="http://www.w3.org/1999/xlink" xmlns:sketch="http://www.bohemiancoding.com/sketch/ns">
    <!-- Generator: Sketch 3.2.2 (9983) - http://www.bohemiancoding.com/sketch -->
    <title>rd-logo</title>
    <desc>Created with Sketch.</desc>
    <defs>
        <linearGradient x1="100.465914%" y1="31.4451975%" x2="7.80074815%" y2="94.6453519%" id="linearGradient-1">
            <stop stop-color="#3B9DF9" offset="0%"></stop>
            <stop stop-color="#B9A7E4" offset="33.000001%"></stop>
            <stop stop-color="#F284BB" offset="66.000003%"></stop>
            <stop stop-color="#F15050" offset="100%"></stop>
        </linearGradient>
    </defs>
    <g id="Page-1" stroke="none" stroke-width="1" fill="none" fill-rule="evenodd" sketch:type="MSPage">
        <g id="rd-logo" sketch:type="MSLayerGroup" transform="translate(1.000000, 1.000000)">
            <path d="M102.48189,2.9375 C97.96904,2.9375 94.73189,5.58714 94.73189,10.21875 L94.73189,42.59375 L100.29439,42.59375 L100.29439,19.34375 L112.23189,19.34375 L119.48189,42.59375 L124.41939,42.59375 L130.38814,22.8125 L136.41939,42.59375 L141.35689,42.59375 L150.16939,14.3125 L144.13814,14.3125 L138.88814,33.9375 L132.54439,14.3125 L128.29439,14.3125 L122.10689,33.9375 L116.60689,14.3125 L100.29439,14.3125 C100.29436,13.30305 100.29439,12.38446 100.29439,11.375 C100.29436,8.94044 100.89107,8.34375 103.32564,8.34375 L108.51314,8.34375 L108.51314,2.9375 L102.48189,2.9375 L102.48189,2.9375 Z M45.23189,2.9687 L45.23189,42.5937 L50.91939,42.5937 L50.91939,2.9687 L45.23189,2.9687 L45.23189,2.9687 Z M57.41939,2.9687 L57.41939,8.68745 L63.10689,8.68745 L63.10689,2.9687 L57.41939,2.9687 L57.41939,2.9687 Z M176.95064,2.9687 L176.95064,42.5937 L182.66939,42.5937 L182.66939,39.37495 C184.4508,41.63137 187.16604,42.93745 190.07564,42.93745 C196.25113,42.93745 199.57564,38.38164 199.57564,32.56245 L199.57564,23.87495 C199.57565,18.53079 195.53855,13.9687 190.07564,13.9687 C187.10666,13.96871 184.62892,15.27166 182.66939,17.4687 L182.66939,2.9687 L176.95064,2.9687 L176.95064,2.9687 Z M13.57564,13.9687 C10.60666,13.96871 8.13204,15.27166 6.23189,17.4687 L6.23189,14.31245 L0.51314,14.31245 L0.51314,42.5937 L6.23189,42.5937 L6.23189,25.49995 C6.2319,22.17468 8.59725,19.5937 11.98189,19.5937 C13.58514,19.5937 14.48493,20.08112 15.73189,21.0312 L19.63814,16.0937 C17.91614,14.6686 15.77269,13.9687 13.57564,13.9687 L13.57564,13.9687 Z M30.13814,13.9687 C23.78453,13.96871 18.45064,19.08696 18.45064,25.49995 L18.45064,30.4687 C18.45065,37.713 23.42821,42.93745 30.73189,42.93745 C34.65094,42.93745 38.45981,41.34393 41.01314,38.37495 L36.79439,34.62495 C35.19115,36.34695 33.23208,37.31245 30.85689,37.31245 C26.70032,37.31245 24.07564,34.75026 24.07564,30.5937 L41.70064,30.5937 L41.70064,26.24995 C41.70063,19.48069 37.14493,13.9687 30.13814,13.9687 L30.13814,13.9687 Z M78.60689,13.9687 C72.25328,13.96871 66.91939,19.08696 66.91939,25.49995 L66.91939,30.4687 C66.91938,37.713 71.89694,42.93745 79.20064,42.93745 C83.11968,42.93745 86.92856,41.34393 89.48189,38.37495 L85.26314,34.62495 C83.65989,36.34695 81.70083,37.31245 79.32564,37.31245 C75.16908,37.31245 72.54439,34.75026 72.54439,30.5937 L90.20064,30.5937 L90.20064,26.24995 C90.20064,19.48069 85.61368,13.9687 78.60689,13.9687 L78.60689,13.9687 Z M161.88814,13.9687 C155.53451,13.96871 150.20064,19.08696 150.20064,25.49995 L150.20064,30.4687 C150.20063,37.713 155.17821,42.93745 162.48189,42.93745 C166.40093,42.93745 170.20982,41.34393 172.76314,38.37495 L168.54439,34.62495 C166.94115,36.34695 164.98207,37.31245 162.60689,37.31245 C158.4503,37.31245 155.82564,34.75026 155.82564,30.5937 L173.45064,30.5937 L173.45064,26.24995 C173.45064,19.48069 168.89492,13.9687 161.88814,13.9687 L161.88814,13.9687 Z M57.41939,14.31245 L57.41939,42.5937 L63.10689,42.5937 L63.10689,14.31245 L57.41939,14.31245 L57.41939,14.31245 Z M30.07564,19.5937 C33.51967,19.5937 36.01628,22.20907 36.07564,25.5937 L24.07564,25.5937 C24.31315,22.20907 26.57226,19.5937 30.07564,19.5937 L30.07564,19.5937 Z M78.54439,19.5937 C81.98841,19.5937 84.48503,22.20907 84.54439,25.5937 L72.54439,25.5937 C72.7819,22.20907 75.04099,19.5937 78.54439,19.5937 L78.54439,19.5937 Z M161.82564,19.5937 C165.26965,19.5937 167.76626,22.20907 167.82564,25.5937 L155.82564,25.5937 C156.06316,22.20907 158.32224,19.5937 161.82564,19.5937 L161.82564,19.5937 Z M188.35689,19.5937 C191.62274,19.5937 193.95064,22.23095 193.95064,25.43745 L193.95064,31.37495 C193.95063,34.75958 191.79779,37.31245 188.29439,37.31245 C184.55347,37.31245 182.66939,34.44084 182.66939,30.93745 L182.66939,25.43745 C182.6694,22.11219 185.03162,19.5937 188.35689,19.5937 L188.35689,19.5937 Z" id="path3250" fill="#E0E0E0" sketch:type="MSShapeGroup"></path>
            <g id="g6112" transform="translate(105.000000, 17.000000)" sketch:type="MSShapeGroup">
                <path d="M95.32443,2.77437 C99.91744,4.68947 102.84124,7.38731 103.45434,10.71154 C105.28014,20.61147 85.89813,32.45467 60.13733,37.19021 C34.37633,41.92576 11.99413,37.73907 10.16853,27.83913 C9.66143,25.08942 10.80253,22.17914 13.25343,19.32354 L11.67873,16.17438 C4.34354,21.23401 0.36274,26.79187 1.29944,31.88805 C3.37704,43.19144 28.82923,47.96353 58.14493,42.55664 C87.46073,37.14976 109.51664,23.62164 107.43904,12.31826 C107.19144,10.97095 106.61444,9.71349 105.73594,8.55855 C105.56914,8.33933 105.37764,8.12788 105.18964,7.91586 C105.17964,7.90526 105.16664,7.89436 105.15764,7.88376 C104.95484,7.66606 104.74444,7.4292 104.51494,7.20894 C104.03344,6.74694 103.49154,6.30622 102.87604,5.85929 C102.67774,5.71531 102.47924,5.54939 102.26554,5.40941 C102.15364,5.33581 102.02704,5.25686 101.91204,5.18447 C101.83304,5.13567 101.73624,5.10417 101.65494,5.05594 C100.01224,4.08255 97.95423,3.2315 95.32453,2.7744 L95.32443,2.77437 Z" id="path5836" fill="#E0E0E0"></path>
                <path d="M95.32444,0.77437 C99.91744,2.68947 102.84124,5.38731 103.45434,8.71154 C105.28014,18.61147 85.89814,30.45467 60.13734,35.19021 C34.37634,39.92576 11.99414,35.73907 10.16854,25.83913 C9.66144,23.08942 10.80254,20.17914 13.25344,17.32354 L11.67874,14.17438 C4.34354,19.23401 0.36274,24.79187 1.29944,29.88805 C3.37704,41.19144 28.82924,45.96353 58.14494,40.55664 C87.46074,35.14976 109.51664,21.62164 107.43904,10.31826 C107.19144,8.97095 106.61444,7.71349 105.73594,6.55855 C105.56914,6.33933 105.37764,6.12788 105.18964,5.91586 C105.17964,5.90526 105.16664,5.89436 105.15764,5.88376 C104.95484,5.66606 104.74444,5.4292 104.51494,5.20894 C104.03344,4.74694 103.49154,4.30622 102.87604,3.85929 C102.67774,3.71531 102.47924,3.54939 102.26554,3.40941 C102.15364,3.33581 102.02704,3.25686 101.91204,3.18447 C101.83304,3.13567 101.73624,3.10417 101.65494,3.05594 C100.01224,2.08255 97.95424,1.2315 95.32454,0.7744 L95.32444,0.77437 Z" id="path5265" stroke="#FFFFFF" stroke-width="2" fill="#FFFFFF"></path>
                <g id="g4987-2-2" transform="translate(0.465000, 0.172740)" fill="url(#linearGradient-1)">
                    <path d="M94.8594,0.60163 C99.4524,2.51673 102.3762,5.21457 102.9893,8.5388 C104.8151,18.43873 85.4331,30.28193 59.6723,35.01747 C33.9113,39.75302 11.5291,35.56633 9.7035,25.66639 C9.1964,22.91668 10.3375,20.0064 12.7884,17.1508 L11.2137,14.00164 C3.8785,19.06127 -0.1023,24.61913 0.8344,29.71531 C2.912,41.0187 28.3642,45.79079 57.6799,40.3839 C86.9957,34.97702 109.0516,21.4489 106.974,10.14552 C106.7264,8.79821 106.1494,7.54075 105.2709,6.38581 C105.1041,6.16659 104.9126,5.95514 104.7246,5.74312 C104.7146,5.73252 104.7016,5.72162 104.6926,5.71102 C104.4898,5.49332 104.2794,5.25646 104.0499,5.0362 C103.5684,4.5742 103.0265,4.13348 102.411,3.68655 C102.2127,3.54257 102.0142,3.37665 101.8005,3.23667 C101.6886,3.16307 101.562,3.08412 101.447,3.01173 C101.368,2.96293 101.2712,2.93143 101.1899,2.8832 C99.5472,1.90981 97.4892,1.05876 94.8595,0.60166 L94.8594,0.60163 Z" id="path4933-0-6"></path>
                </g>
            </g>
            <path d="M102.48189,0.9375 C97.96904,0.9375 94.73189,3.58714 94.73189,8.21875 L94.73189,40.59375 L100.29439,40.59375 L100.29439,17.34375 L112.23189,17.34375 L119.48189,40.59375 L124.41939,40.59375 L130.38814,20.8125 L136.41939,40.59375 L141.35689,40.59375 L150.16939,12.3125 L144.13814,12.3125 L138.88814,31.9375 L132.54439,12.3125 L128.29439,12.3125 L122.10689,31.9375 L116.60689,12.3125 L100.29439,12.3125 C100.29436,11.30305 100.29439,10.38446 100.29439,9.375 C100.29436,6.94044 100.89107,6.34375 103.32564,6.34375 L108.51314,6.34375 L108.51314,0.9375 L102.48189,0.9375 L102.48189,0.9375 Z M45.23189,0.9687 L45.23189,40.5937 L50.91939,40.5937 L50.91939,0.9687 L45.23189,0.9687 L45.23189,0.9687 Z M57.41939,0.9687 L57.41939,6.68745 L63.10689,6.68745 L63.10689,0.9687 L57.41939,0.9687 L57.41939,0.9687 Z M176.95064,0.9687 L176.95064,40.5937 L182.66939,40.5937 L182.66939,37.37495 C184.4508,39.63137 187.16604,40.93745 190.07564,40.93745 C196.25113,40.93745 199.57564,36.38164 199.57564,30.56245 L199.57564,21.87495 C199.57565,16.53079 195.53855,11.9687 190.07564,11.9687 C187.10666,11.96871 184.62892,13.27166 182.66939,15.4687 L182.66939,0.9687 L176.95064,0.9687 L176.95064,0.9687 Z M13.57564,11.9687 C10.60666,11.96871 8.13204,13.27166 6.23189,15.4687 L6.23189,12.31245 L0.51314,12.31245 L0.51314,40.5937 L6.23189,40.5937 L6.23189,23.49995 C6.2319,20.17468 8.59725,17.5937 11.98189,17.5937 C13.58514,17.5937 14.48493,18.08112 15.73189,19.0312 L19.63814,14.0937 C17.91614,12.6686 15.77269,11.9687 13.57564,11.9687 L13.57564,11.9687 Z M30.13814,11.9687 C23.78453,11.96871 18.45064,17.08696 18.45064,23.49995 L18.45064,28.4687 C18.45065,35.713 23.42821,40.93745 30.73189,40.93745 C34.65094,40.93745 38.45981,39.34393 41.01314,36.37495 L36.79439,32.62495 C35.19115,34.34695 33.23208,35.31245 30.85689,35.31245 C26.70032,35.31245 24.07564,32.75026 24.07564,28.5937 L41.70064,28.5937 L41.70064,24.24995 C41.70063,17.48069 37.14493,11.9687 30.13814,11.9687 L30.13814,11.9687 Z M78.60689,11.9687 C72.25328,11.96871 66.91939,17.08696 66.91939,23.49995 L66.91939,28.4687 C66.91938,35.713 71.89694,40.93745 79.20064,40.93745 C83.11968,40.93745 86.92856,39.34393 89.48189,36.37495 L85.26314,32.62495 C83.65989,34.34695 81.70083,35.31245 79.32564,35.31245 C75.16908,35.31245 72.54439,32.75026 72.54439,28.5937 L90.20064,28.5937 L90.20064,24.24995 C90.20064,17.48069 85.61368,11.9687 78.60689,11.9687 L78.60689,11.9687 Z M161.88814,11.9687 C155.53451,11.96871 150.20064,17.08696 150.20064,23.49995 L150.20064,28.4687 C150.20063,35.713 155.17821,40.93745 162.48189,40.93745 C166.40093,40.93745 170.20982,39.34393 172.76314,36.37495 L168.54439,32.62495 C166.94115,34.34695 164.98207,35.31245 162.60689,35.31245 C158.4503,35.31245 155.82564,32.75026 155.82564,28.5937 L173.45064,28.5937 L173.45064,24.24995 C173.45064,17.48069 168.89492,11.9687 161.88814,11.9687 L161.88814,11.9687 Z M57.41939,12.31245 L57.41939,40.5937 L63.10689,40.5937 L63.10689,12.31245 L57.41939,12.31245 L57.41939,12.31245 Z M30.07564,17.5937 C33.51967,17.5937 36.01628,20.20907 36.07564,23.5937 L24.07564,23.5937 C24.31315,20.20907 26.57226,17.5937 30.07564,17.5937 L30.07564,17.5937 Z M78.54439,17.5937 C81.98841,17.5937 84.48503,20.20907 84.54439,23.5937 L72.54439,23.5937 C72.7819,20.20907 75.04099,17.5937 78.54439,17.5937 L78.54439,17.5937 Z M161.82564,17.5937 C165.26965,17.5937 167.76626,20.20907 167.82564,23.5937 L155.82564,23.5937 C156.06316,20.20907 158.32224,17.5937 161.82564,17.5937 L161.82564,17.5937 Z M188.35689,17.5937 C191.62274,17.5937 193.95064,20.23095 193.95064,23.43745 L193.95064,29.37495 C193.95063,32.75958 191.79779,35.31245 188.29439,35.31245 C184.55347,35.31245 182.66939,32.44084 182.66939,28.93745 L182.66939,23.43745 C182.6694,20.11219 185.03162,17.5937 188.35689,17.5937 L188.35689,17.5937 Z" id="path3266" stroke="#FFFFFF" stroke-width="2" fill="#404040" sketch:type="MSShapeGroup"></path>
            <path d="M102.40538,1.20047 C97.89248,1.20047 94.65538,3.85011 94.65538,8.48172 L94.65538,40.85672 L100.21788,40.85672 L100.21788,17.60672 L112.15538,17.60672 L119.40538,40.85672 L124.34288,40.85672 L130.31158,21.07547 L136.34288,40.85672 L141.28038,40.85672 L150.09288,12.57547 L144.06158,12.57547 L138.81158,32.20047 L132.46788,12.57547 L128.21788,12.57547 L122.03038,32.20047 L116.53038,12.57547 L100.21788,12.57547 C100.21778,11.56602 100.21788,10.64743 100.21788,9.63797 C100.21778,7.20341 100.81448,6.60672 103.24908,6.60672 L108.43658,6.60672 L108.43658,1.20047 L102.40538,1.20047 L102.40538,1.20047 Z M45.15538,1.23167 L45.15538,40.85667 L50.84288,40.85667 L50.84288,1.23167 L45.15538,1.23167 L45.15538,1.23167 Z M57.34288,1.23167 L57.34288,6.95042 L63.03038,6.95042 L63.03038,1.23167 L57.34288,1.23167 L57.34288,1.23167 Z M176.87408,1.23167 L176.87408,40.85667 L182.59288,40.85667 L182.59288,37.63792 C184.37428,39.89434 187.08948,41.20042 189.99908,41.20042 C196.17458,41.20042 199.49908,36.64461 199.49908,30.82542 L199.49908,22.13792 C199.49908,16.79376 195.46198,12.23167 189.99908,12.23167 C187.03008,12.23168 184.55238,13.53463 182.59288,15.73167 L182.59288,1.23167 L176.87408,1.23167 L176.87408,1.23167 Z M13.49908,12.23167 C10.53008,12.23168 8.05548,13.53463 6.15538,15.73167 L6.15538,12.57542 L0.43658,12.57542 L0.43658,40.85667 L6.15538,40.85667 L6.15538,23.76292 C6.15538,20.43765 8.52068,17.85667 11.90538,17.85667 C13.50858,17.85667 14.40838,18.34409 15.65538,19.29417 L19.56158,14.35667 C17.83958,12.93157 15.69618,12.23167 13.49908,12.23167 L13.49908,12.23167 Z M30.06158,12.23167 C23.70798,12.23168 18.37408,17.34993 18.37408,23.76292 L18.37408,28.73167 C18.37408,35.97597 23.35168,41.20042 30.65538,41.20042 C34.57438,41.20042 38.38328,39.6069 40.93658,36.63792 L36.71788,32.88792 C35.11458,34.60992 33.15548,35.57542 30.78038,35.57542 C26.62378,35.57542 23.99908,33.01323 23.99908,28.85667 L41.62408,28.85667 L41.62408,24.51292 C41.62408,17.74366 37.06838,12.23167 30.06158,12.23167 L30.06158,12.23167 Z M78.53038,12.23167 C72.17668,12.23168 66.84288,17.34993 66.84288,23.76292 L66.84288,28.73167 C66.84278,35.97597 71.82038,41.20042 79.12408,41.20042 C83.04308,41.20042 86.85198,39.6069 89.40538,36.63792 L85.18658,32.88792 C83.58328,34.60992 81.62428,35.57542 79.24908,35.57542 C75.09248,35.57542 72.46788,33.01323 72.46788,28.85667 L90.12408,28.85667 L90.12408,24.51292 C90.12408,17.74366 85.53708,12.23167 78.53038,12.23167 L78.53038,12.23167 Z M161.81158,12.23167 C155.45798,12.23168 150.12408,17.34993 150.12408,23.76292 L150.12408,28.73167 C150.12408,35.97597 155.10168,41.20042 162.40538,41.20042 C166.32438,41.20042 170.13328,39.6069 172.68658,36.63792 L168.46788,32.88792 C166.86458,34.60992 164.90548,35.57542 162.53038,35.57542 C158.37378,35.57542 155.74908,33.01323 155.74908,28.85667 L173.37408,28.85667 L173.37408,24.51292 C173.37408,17.74366 168.81838,12.23167 161.81158,12.23167 L161.81158,12.23167 Z M57.34288,12.57542 L57.34288,40.85667 L63.03038,40.85667 L63.03038,12.57542 L57.34288,12.57542 L57.34288,12.57542 Z M29.99908,17.85667 C33.44308,17.85667 35.93968,20.47204 35.99908,23.85667 L23.99908,23.85667 C24.23658,20.47204 26.49568,17.85667 29.99908,17.85667 L29.99908,17.85667 Z M78.46788,17.85667 C81.91188,17.85667 84.40848,20.47204 84.46788,23.85667 L72.46788,23.85667 C72.70538,20.47204 74.96448,17.85667 78.46788,17.85667 L78.46788,17.85667 Z M161.74908,17.85667 C165.19308,17.85667 167.68968,20.47204 167.74908,23.85667 L155.74908,23.85667 C155.98658,20.47204 158.24568,17.85667 161.74908,17.85667 L161.74908,17.85667 Z M188.28038,17.85667 C191.54618,17.85667 193.87408,20.49392 193.87408,23.70042 L193.87408,29.63792 C193.87408,33.02255 191.72128,35.57542 188.21788,35.57542 C184.47688,35.57542 182.59288,32.70381 182.59288,29.20042 L182.59288,23.70042 C182.59288,20.37516 184.95508,17.85667 188.28038,17.85667 L188.28038,17.85667 Z" id="path3216-7-2" fill="#404040" sketch:type="MSShapeGroup"></path>
        </g>
    </g>
</svg>