<?xml version="1.0" encoding="UTF-8"?>
<svg width="215px" height="63px" viewBox="0 0 215 63" version="1.1" xmlns="http://www.w3.org/2000/svg" xmlns:xlink="http://www.w3.org/1999/xlink">
    <!-- Generator: Sketch 43.2 (39069) - http://www.bohemiancoding.com/sketch -->
    <title>Artboard</title>
    <desc>Created with Sketch.</desc>
    <defs>
        <linearGradient x1="-0.026810596%" y1="50.0571284%" x2="100.006065%" y2="50.0571284%" id="linearGradient-1">
            <stop stop-color="#F65C51" offset="0%"></stop>
            <stop stop-color="#D9615E" offset="14.64%"></stop>
            <stop stop-color="#906F7F" offset="46.42%"></stop>
            <stop stop-color="#1C84B2" offset="92.62%"></stop>
            <stop stop-color="#0988BB" offset="100%"></stop>
        </linearGradient>
    </defs>
    <g id="Page-1" stroke="none" stroke-width="1" fill="none" fill-rule="evenodd">
        <g id="Artboard" fill-rule="nonzero">
            <g id="ReliefWeb-logo-2017-03-web" transform="translate(0.000000, 3.000000)">
                <g id="Group" fill="#404040">
                    <path d="M0.836296308,20.2801855 C0.836296308,15.3669447 0.243919756,14.3564199 0.243919756,13.3807409 C0.243919756,12.1959878 4.49509265,11.8126853 5.71469144,11.8126853 C7.28274701,11.8126853 7.38728405,13.7640434 7.66604949,14.9836422 C8.71141987,13.1368212 10.1749384,11.2551545 12.9974384,11.2551545 C15.4017903,11.2551545 15.7850928,12.9277471 15.7850928,13.9034261 C15.7850928,14.8442595 15.2624076,18.0152163 14.2518829,18.0152163 C13.5549693,18.0152163 12.9277471,17.6319138 11.9520681,17.6319138 C9.93101865,17.6319138 8.60688283,19.0954324 8.04935196,20.0711114 L8.04935196,35.7865128 C8.04935196,36.8318832 7.17820997,37.3545684 5.12231488,37.3545684 L3.76333338,37.3545684 C1.70743829,37.3545684 0.836296308,36.8318832 0.836296308,35.7865128 L0.836296308,20.2801855 L0.836296308,20.2801855 Z" id="Shape"></path>
                    <path d="M28.921914,11.2551545 C36.6228091,11.2551545 39.5150005,17.0743829 39.5150005,23.9041361 C39.5150005,24.7404324 37.6681795,26.7963275 37.0061116,26.7963275 L24.4965127,26.7963275 C24.8449695,30.6990436 26.9357102,31.9534881 30.1415128,31.9534881 C33.2427782,31.9534881 35.3683647,30.4202782 36.0652783,30.4202782 C37.1454943,30.4202782 38.6090129,33.1730869 38.6090129,34.1487659 C38.6090129,36.5879635 32.5458646,37.6681795 29.793056,37.6681795 C20.9074077,37.6681795 17.0046916,32.511019 17.0046916,24.6358954 C17.0395373,14.9836422 21.9179324,11.2551545 28.921914,11.2551545 Z M32.4761733,21.9179324 C32.4761733,19.0605867 31.3959572,16.9698459 28.9567597,16.9698459 C26.9008646,16.9698459 25.1237349,18.154599 24.5313584,21.9179324 L32.4761733,21.9179324 Z" id="Shape"></path>
                    <path d="M43.7313278,1.88166669 C43.7313278,0.836296308 44.6024697,0.313611115 46.6583648,0.313611115 L48.0173463,0.313611115 C50.0732414,0.313611115 50.9443834,0.836296308 50.9443834,1.88166669 L50.9443834,29.793056 C50.9443834,31.2565745 51.4322229,31.8837967 52.7215131,31.8837967 C53.1745069,31.8837967 53.7668834,31.6747227 54.0456489,31.6747227 C55.0213279,31.6747227 55.5788588,34.8108338 55.5788588,35.1941363 C55.5788588,37.4591054 52.4079019,37.5984882 50.874692,37.5984882 C46.2750624,37.5984882 43.7313278,35.0895992 43.7313278,29.6536732 L43.7313278,1.88166669 L43.7313278,1.88166669 Z" id="Shape"></path>
                    <path d="M58.9588897,5.85407415 L58.9588897,1.88166669 C58.9588897,0.836296308 59.8300317,0.313611115 61.8859268,0.313611115 L63.2449083,0.313611115 C65.3008034,0.313611115 66.1719453,0.836296308 66.1719453,1.88166669 L66.1719453,5.85407415 C66.1719453,6.89944454 65.3008034,7.42212973 63.2449083,7.42212973 L61.8859268,7.42212973 C59.8300317,7.42212973 58.9588897,6.89944454 58.9588897,5.85407415 Z M58.9588897,13.1019755 C58.9588897,12.0566051 59.8300317,11.5339199 61.8859268,11.5339199 L63.2449083,11.5339199 C65.3008034,11.5339199 66.1719453,12.0566051 66.1719453,13.1019755 L66.1719453,35.7865128 C66.1719453,36.8318832 65.3008034,37.3545684 63.2449083,37.3545684 L61.8859268,37.3545684 C59.8300317,37.3545684 58.9588897,36.8318832 58.9588897,35.7865128 L58.9588897,13.1019755 Z" id="Shape"></path>
                    <path d="M83.0720999,11.2551545 C90.7729951,11.2551545 93.6651865,17.0743829 93.6651865,23.9041361 C93.6651865,24.7404324 91.8183654,26.7963275 91.1562975,26.7963275 L78.6466986,26.7963275 C78.9951554,30.6990436 81.0858962,31.9534881 84.2916987,31.9534881 C87.3929641,31.9534881 89.5185506,30.4202782 90.2154642,30.4202782 C91.2956802,30.4202782 92.7591988,33.1730869 92.7591988,34.1487659 C92.7591988,36.5879635 86.6960506,37.6681795 83.9432419,37.6681795 C75.0575936,37.6681795 71.1548775,32.511019 71.1548775,24.6358954 C71.1548775,14.9836422 76.0681183,11.2551545 83.0720999,11.2551545 Z M86.5915135,21.9179324 C86.5915135,19.0605867 85.5112975,16.9698459 83.0720999,16.9698459 C81.0162048,16.9698459 79.2390751,18.154599 78.6466986,21.9179324 L86.5915135,21.9179324 Z" id="Shape"></path>
                    <path d="M98.6481186,17.3879941 L97.7769766,17.3879941 C96.7316062,17.3879941 96.3134581,16.6562348 96.3134581,14.9487965 L96.3134581,14.1125002 C96.3134581,12.4050619 96.7664519,11.6733026 97.7769766,11.6733026 L98.6481186,11.6733026 L98.6481186,7.9796606 C98.6481186,2.5437346 101.191853,0.0348456795 105.791483,0.0348456795 C107.359538,0.0348456795 110.704724,0.174228397 110.704724,2.43919756 C110.704724,2.82250004 110.182039,5.95861119 109.171514,5.95861119 C108.823057,5.95861119 108.126143,5.74953711 107.638304,5.74953711 C106.349014,5.74953711 105.861174,6.37675935 105.861174,7.84027788 L105.861174,11.6036113 L120.705434,11.6036113 C121.750804,11.6036113 122.168952,12.3353705 122.168952,14.0428088 L122.168952,14.8791051 C122.168952,16.5865434 121.715958,17.3183027 120.705434,17.3183027 L105.861174,17.3183027 L105.861174,35.7516671 C105.861174,36.7970375 104.990032,37.3197227 102.934137,37.3197227 L101.575156,37.3197227 C99.5192606,37.3197227 98.6481186,36.7970375 98.6481186,35.7516671 L98.6481186,17.3879941 L98.6481186,17.3879941 Z" id="Shape"></path>
                    <path d="M115.339199,13.5549693 C115.234662,13.2762039 115.234662,13.0322841 115.234662,12.82321 C115.234662,12.0566051 116.523952,12.0566051 118.614693,12.0566051 L119.311607,11.6384569 C120.600897,11.5687656 121.959878,11.8823767 122.168952,12.5792903 L126.036823,27.6674695 L129.76531,12.5792903 C129.904693,11.8823767 130.880372,11.5339199 132.448428,11.5339199 L133.633181,11.5339199 C134.992162,11.5339199 136.176915,11.8823767 136.316298,12.5792903 L139.940249,27.6674695 L143.912656,12.5792903 C144.12173,11.8823767 145.027718,11.5339199 146.595774,11.5339199 L146.804848,11.5339199 C148.895588,11.5339199 149.836422,12.0217594 149.836422,12.82321 C149.836422,13.0322841 149.801576,13.2762039 149.731885,13.5549693 L143.947502,36.3440437 C143.738428,37.0409573 142.623366,37.3894141 141.264385,37.3894141 L138.860033,37.3894141 C137.291977,37.3894141 136.351144,37.0409573 136.176915,36.3440437 L132.657502,22.5800003 L129.312317,36.3440437 C129.172934,37.0409573 127.988181,37.3894141 126.629199,37.3894141 L124.224847,37.3894141 C122.621946,37.3894141 121.715958,37.0409573 121.54173,36.3440437 L115.339199,13.5549693 Z" id="Shape"></path>
                    <path d="M164.157996,11.2551545 C171.858891,11.2551545 174.751083,17.0743829 174.751083,23.9041361 C174.751083,24.7404324 172.904262,26.7963275 172.242194,26.7963275 L159.732595,26.7963275 C160.081052,30.6990436 162.171792,31.9534881 165.377595,31.9534881 C168.47886,31.9534881 170.604447,30.4202782 171.30136,30.4202782 C172.381576,30.4202782 173.845095,33.1730869 173.845095,34.1487659 C173.845095,36.5879635 167.781947,37.6681795 165.029138,37.6681795 C156.14349,37.6681795 152.240774,32.511019 152.240774,24.6358954 C152.240774,14.9836422 157.154014,11.2551545 164.157996,11.2551545 Z M167.67741,21.9179324 C167.67741,19.0605867 166.597194,16.9698459 164.157996,16.9698459 C162.102101,16.9698459 160.324971,18.154599 159.732595,21.9179324 L167.67741,21.9179324 Z" id="Shape"></path>
                    <path d="M179.071947,1.88166669 C179.071947,0.836296308 179.943089,0.313611115 181.998984,0.313611115 L183.357965,0.313611115 C185.413861,0.313611115 186.285003,0.836296308 186.285003,1.88166669 L186.285003,12.7535187 C187.330373,12.0217594 188.96812,11.2203088 191.267935,11.2203088 C197.888614,11.2203088 201.617101,16.412315 201.617101,24.3919756 C201.617101,32.9291671 197.749231,37.6333338 192.452688,37.6333338 C189.421114,37.6333338 187.016762,36.0652783 185.9017,33.9745375 L185.413861,36.0652783 C185.169941,37.1454943 184.12457,37.3545684 182.556515,37.3545684 L181.964138,37.3545684 C179.908243,37.3545684 179.037101,36.8318832 179.037101,35.7865128 L179.037101,1.88166669 L179.071947,1.88166669 Z M190.361947,31.744414 C193.045064,31.744414 194.334354,29.2006794 194.334354,24.4268213 C194.334354,19.5135805 192.870836,16.9698459 189.76957,16.9698459 C188.236361,16.9698459 187.121299,17.4576854 186.354694,17.9106793 L186.354694,28.8522226 C187.225836,30.3505868 188.48028,31.744414 190.361947,31.744414 Z" id="Shape"></path>
                </g>
                <path d="M214.85846,24.5313584 C214.231237,19.6181175 208.133244,15.8547842 204.404756,15.2972533 C205.763737,16.3426237 207.262102,17.2486113 208.4817,18.4333644 C210.572441,20.4195682 211.513274,22.8936114 210.781515,25.7858028 C210.084602,28.5734572 208.342318,30.7338893 206.286423,32.6852474 C201.54741,37.18034 195.832719,40.1422228 189.839262,42.5814203 C179.037101,47.0068216 167.747101,49.4460192 156.14349,50.4913896 C148.512286,51.1883032 140.915928,51.0837661 133.354415,49.6899389 C129.068397,48.923334 124.921761,47.7385809 121.29781,45.1948463 C117.639014,42.616266 116.454261,39.4104635 117.67386,35.7168215 L116.14065,30.00213 L116.105804,29.9672844 C114.502903,31.1868831 111.366792,33.8003091 109.450279,37.4242598 C107.115619,41.8845067 107.986761,46.100834 111.924323,49.3414821 C115.478582,52.2685192 119.729755,53.6623464 124.155156,54.6380254 C133.528644,56.7287662 143.006669,56.6939205 152.519539,55.8576242 C162.799015,54.9516365 172.83457,52.9654328 182.626206,49.794476 C190.745249,47.18105 198.585527,43.9404018 205.554663,38.9574697 C208.516546,36.8667289 211.199663,34.4972227 213.116176,31.3959572 C214.440312,29.3400621 215.172071,27.075093 214.85846,24.5313584 Z" id="Shape" fill="url(#linearGradient-1)"></path>
            </g>
        </g>
    </g>
</svg>