<?xml version="1.0" encoding="utf-8"?>
<!-- Generator: Adobe Illustrator 21.0.2, SVG Export Plug-In . SVG Version: 6.00 Build 0)  -->
<svg version="1.1" id="Layer_1" xmlns="http://www.w3.org/2000/svg" xmlns:xlink="http://www.w3.org/1999/xlink" x="0px" y="0px"
	 viewBox="0 0 422 120" style="enable-background:new 0 0 422 120;" xml:space="preserve">
<style type="text/css">
	.st0{fill:#5E5E5E;}
	.st1{fill:url(#SVGID_1_);}
</style>
<g>
	<g>
		<path class="st0" d="M30.5,26.7c-5.4,0-8.2,3.6-10.2,7.1c-0.6-2.3-0.7-6.1-3.7-6.1c-2.3,0-10.5,0.7-10.5,3c0,1.9,1.1,3.8,1.1,13.2
			v29.6c0,2,1.7,3,5.6,3h2.6c3.9,0,5.6-1,5.6-3v-30c1.1-1.9,3.6-4.7,7.5-4.7c1.9,0,3.1,0.7,4.4,0.7c1.9,0,2.9-6.1,2.9-7.9
			C35.9,29.9,35.1,26.7,30.5,26.7z"/>
		<path class="st0" d="M81.1,50.8c0-13-5.5-24.1-20.2-24.1c-13.4,0-22.7,7.1-22.7,25.5c0,15.1,7.5,24.9,24.4,24.9
			c5.2,0,16.8-2.1,16.8-6.7c0-1.9-2.8-7.1-4.9-7.1c-1.3,0-5.4,2.9-11.3,2.9c-6.1,0-10.1-2.3-10.8-9.8h23.8
			C77.5,56.4,81.1,52.4,81.1,50.8z M52.5,47.1c1.1-7.2,4.5-9.4,8.4-9.4c4.7,0,6.7,4,6.7,9.4H52.5z"/>
		<path class="st0" d="M108.8,65.8c-0.6,0-1.7,0.4-2.5,0.4c-2.4,0-3.4-1.2-3.4-4V8.9c0-2-1.7-3-5.6-3h-2.6c-3.9,0-5.6,1-5.6,3V62
			c0,10.4,4.9,15.1,13.6,15.1c2.9,0,9-0.3,9-4.6C111.7,71.8,110.7,65.8,108.8,65.8z"/>
		<path class="st0" d="M126.4,27.3h-2.6c-3.9,0-5.6,1-5.6,3v43.3c0,2,1.7,3,5.6,3h2.6c3.9,0,5.6-1,5.6-3V30.3
			C132,28.3,130.3,27.3,126.4,27.3z"/>
		<path class="st0" d="M126.4,5.9h-2.6c-3.9,0-5.6,1-5.6,3v7.6c0,2,1.7,3,5.6,3h2.6c3.9,0,5.6-1,5.6-3V8.9
			C132,6.9,130.3,5.9,126.4,5.9z"/>
		<path class="st0" d="M184.4,50.8c0-13-5.5-24.1-20.2-24.1c-13.4,0-22.7,7.1-22.7,25.5c0,15.1,7.5,24.9,24.4,24.9
			c5.2,0,16.8-2.1,16.8-6.7c0-1.9-2.8-7.1-4.9-7.1c-1.3,0-5.4,2.9-11.3,2.9c-6.1,0-10.1-2.3-10.8-9.8h23.8
			C180.8,56.4,184.4,52.4,184.4,50.8z M155.8,47.1c1.1-7.2,4.5-9.4,8.4-9.4c4.7,0,6.7,4,6.7,9.4H155.8z"/>
		<path class="st0" d="M285.7,27.3h-0.4c-3,0-4.8,0.7-5.1,2l-7.6,28.8l-6.9-28.8c-0.3-1.3-2.5-2-5.1-2h-2.2c-3,0-4.9,0.7-5.1,2
			l-7.1,28.8l-7.4-28.8c-0.1-0.3-0.3-0.6-0.6-0.8c-0.5-0.6-1.1-0.9-2-0.9h-1.5c-0.4,0-0.8,0-1.2,0h-25.6v-7.2c0-2.8,0.9-4,3.4-4
			c0.9,0,2.2,0.4,2.9,0.4c1.9,0,2.9-6,2.9-6.7c0-4.3-6.4-4.6-9.3-4.6c-8.8,0-13.6,4.8-13.6,15.1v7h-1.7c-2,0-2.8,1.4-2.8,4.7v1.6
			c0,3.3,0.8,4.7,2.8,4.7h1.7v35.1c0,2,1.7,3,5.6,3h2.6c3.9,0,5.6-1,5.6-3V38.6h20l9.8,36.2c0.4,1.3,2.1,2,5.1,2h4.6
			c2.6,0,4.9-0.7,5.1-2l6.4-26.3l6.7,26.3c0.4,1.3,2.1,2,5.1,2h4.6c2.6,0,4.8-0.7,5.1-2l11-43.5c0.1-0.6,0.2-1,0.2-1.4
			C291.5,28.2,289.7,27.3,285.7,27.3z"/>
		<path class="st0" d="M339.1,50.8c0-13-5.5-24.1-20.2-24.1c-13.4,0-22.7,7.1-22.7,25.5c0,15.1,7.5,24.9,24.4,24.9
			c5.2,0,16.8-2.1,16.8-6.7c0-1.9-2.8-7.1-4.9-7.1c-1.3,0-5.4,2.9-11.3,2.9c-6.1,0-10.1-2.3-10.8-9.8h23.8
			C335.5,56.4,339.1,52.4,339.1,50.8z M310.5,47.1c1.1-7.2,4.5-9.4,8.4-9.4c4.7,0,6.7,4,6.7,9.4H310.5z"/>
		<path class="st0" d="M370.7,26.7c-4.4,0-7.6,1.5-9.5,2.9V8.8c0-2-1.7-3-5.6-3H353c-3.9,0-5.6,1-5.6,3v64.7c0,2,1.7,3,5.6,3h1.1
			c3,0,5-0.4,5.4-2.4l0.9-4c2.1,4,6.7,7,12.5,7c10.1,0,17.5-9,17.5-25.2C390.4,36.6,383.3,26.7,370.7,26.7z M368.8,65.8
			c-3.6,0-6-2.6-7.7-5.5V39.5c1.5-0.8,3.6-1.8,6.5-1.8c5.9,0,8.7,4.9,8.7,14.2C376.4,60.9,374,65.8,368.8,65.8z"/>
	</g>
	<g>
		
			<linearGradient id="SVGID_1_" gradientUnits="userSpaceOnUse" x1="211.9309" y1="48.3332" x2="415.7375" y2="48.3332" gradientTransform="matrix(1 0 0 -1 0 122)">
			<stop  offset="0" style="stop-color:#EB5C6D"/>
			<stop  offset="0.2429" style="stop-color:#C8738B"/>
			<stop  offset="0.4999" style="stop-color:#9D81A6"/>
			<stop  offset="0.7211" style="stop-color:#7386B9"/>
			<stop  offset="0.8949" style="stop-color:#4F88C4"/>
			<stop  offset="1" style="stop-color:#3D88C7"/>
		</linearGradient>
		<path class="st1" d="M415.6,52.1c-1.2-9.4-12.8-16.6-20-17.6c2.6,2,5.4,3.7,7.8,6c4,3.8,5.8,8.5,4.4,14c-1.3,5.3-4.7,9.5-8.6,13.2
			c-9.1,8.6-20,14.2-31.4,18.9c-20.6,8.4-42.1,13.1-64.3,15.1c-14.6,1.3-29.1,1.1-43.4-1.5c-8.2-1.5-16.1-3.7-23-8.6
			c-7-4.9-9.2-11-6.9-18.1l-3-10.9c0,0,0,0-0.1-0.1c-3.1,2.3-9.1,7.3-12.7,14.2c-4.5,8.5-2.8,16.6,4.7,22.7
			c6.8,5.6,14.9,8.3,23.3,10.1c17.9,4,36,3.9,54.1,2.3c19.6-1.7,38.8-5.5,57.4-11.6c15.5-5,30.4-11.2,43.8-20.7
			c5.6-4,10.8-8.5,14.4-14.4C414.8,61.2,416.2,56.9,415.6,52.1z"/>
	</g>
</g>
</svg>
