<?xml version="1.0" encoding="utf-8"?>
<!-- Generator: Adobe Illustrator 21.0.2, SVG Export Plug-In . SVG Version: 6.00 Build 0)  -->
<svg version="1.1" id="Layer_1" xmlns="http://www.w3.org/2000/svg" xmlns:xlink="http://www.w3.org/1999/xlink" x="0px" y="0px"
	 viewBox="0 0 104 42" style="enable-background:new 0 0 104 42;" xml:space="preserve">
<style type="text/css">
	.st0{fill:#0AC7D9;}
	.st1{fill:#FFFFFF;}
	.st2{fill:#3D5D77;}
	.st3{fill:#DFEDF1;}
	.st4{opacity:0.5;fill:#9B9C9E;}
	.st5{opacity:0.5;fill:none;stroke:#9B9C9E;stroke-miterlimit:10;}
	.st6{fill:none;stroke:#0AC7D9;stroke-miterlimit:10;}
	.st7{fill:none;stroke:#DFEDF1;stroke-width:1.2831;stroke-miterlimit:10;}
	.st8{fill:#90A3AF;}
	.st9{fill:none;stroke:#0AC7D9;stroke-width:0.825;stroke-miterlimit:10;}
	.st10{opacity:0.5;fill:none;stroke:#CCCCCC;stroke-width:0.25;stroke-miterlimit:10;}
	.st11{fill:#FFFFFF;stroke:#3D5D77;stroke-width:0.75;stroke-miterlimit:10;}
	.st12{fill:#FFDD71;}
	.st13{fill:#6997B7;}
	.st14{opacity:0.5;fill:none;stroke:#0AC7D9;stroke-miterlimit:10;}
	.st15{fill:none;stroke:#3D5D77;stroke-width:1.5;stroke-miterlimit:10;}
	.st16{fill:#1C304A;}
	.st17{fill:#FFF6DE;}
	.st18{fill:none;stroke:#FFDD71;stroke-miterlimit:10;}
	.st19{fill:none;stroke:#FFDD71;stroke-width:0.825;stroke-miterlimit:10;}
	.st20{fill:#F2F2F2;}
	.st21{fill:none;stroke:#666666;stroke-width:2;stroke-miterlimit:10;stroke-dasharray:1.5,3;}
	.st22{fill:#808080;}
	.st23{fill:#333333;}
	.st24{fill:#C9B57D;}
	.st25{fill:#A4B8BC;}
	.st26{fill:none;stroke:#CCCCCC;stroke-width:0.25;stroke-miterlimit:10;}
	.st27{fill:none;stroke:#3D5D77;stroke-miterlimit:10;}
	.st28{fill:none;stroke:#1C304A;stroke-width:0.9576;stroke-miterlimit:10;}
</style>
<path class="st0" d="M9,5.4c-0.6,0-1,0.4-1,1v10.4c0,0.6,0.4,1,1,1h8.7c0.6,0,1-0.4,1-1V8.4l-3-3H9z"/>
<g>
	<path class="st1" d="M16.8,8.3c-0.5,0-0.9-0.4-0.9-0.9V5.7l2.6,2.6H16.8z"/>
	<path class="st0" d="M16,6l2.2,2.2h-1.4c-0.4,0-0.8-0.3-0.8-0.8V6 M15.8,5.4v2c0,0.6,0.4,1,1,1h2L15.8,5.4L15.8,5.4z"/>
</g>
<rect x="8" y="19.5" class="st2" width="89.4" height="17.3"/>
<g>
	<path class="st1" d="M12.5,8h1.8l3.8,9h-2.1l-0.8-2h-3.8l-0.8,2h-2L12.5,8z M14.6,13.3l-1.2-2.9l-1.2,2.9H14.6z"/>
	<path class="st2" d="M19.6,15.7l1.2-1.4c0.8,0.7,1.6,1.1,2.7,1.1c0.8,0,1.3-0.3,1.3-0.8v0c0-0.5-0.3-0.8-1.8-1.1
		c-1.8-0.5-3-1-3-2.7v0C19.9,9,21.2,8,23.1,8c1.3,0,2.4,0.4,3.3,1.1l-1,1.5C24.6,10,23.8,9.7,23,9.7c-0.8,0-1.1,0.3-1.1,0.8v0
		c0,0.6,0.4,0.8,1.9,1.2c1.8,0.5,2.8,1.1,2.8,2.7v0c0,1.8-1.4,2.8-3.3,2.8C22,17.1,20.6,16.7,19.6,15.7z"/>
	<path class="st2" d="M27.6,15.7l1.2-1.4c0.8,0.7,1.6,1.1,2.7,1.1c0.8,0,1.3-0.3,1.3-0.8v0c0-0.5-0.3-0.8-1.8-1.1
		c-1.8-0.5-3-1-3-2.7v0C28,9,29.3,8,31.1,8c1.3,0,2.4,0.4,3.3,1.1l-1,1.5c-0.8-0.5-1.6-0.9-2.3-0.9c-0.8,0-1.1,0.3-1.1,0.8v0
		c0,0.6,0.4,0.8,1.9,1.2c1.8,0.5,2.8,1.1,2.8,2.7v0c0,1.8-1.4,2.8-3.3,2.8C30,17.1,28.7,16.7,27.6,15.7z"/>
	<path class="st2" d="M36.4,8.1h6.7v1.7h-4.8v1.8h4.2v1.7h-4.2v1.9h4.8V17h-6.8V8.1z"/>
	<path class="st2" d="M44.3,15.7l1.2-1.4c0.8,0.7,1.6,1.1,2.7,1.1c0.8,0,1.3-0.3,1.3-0.8v0c0-0.5-0.3-0.8-1.8-1.1
		c-1.8-0.5-3-1-3-2.7v0C44.7,9,46,8,47.8,8c1.3,0,2.4,0.4,3.3,1.1l-1,1.5c-0.8-0.5-1.6-0.9-2.3-0.9c-0.8,0-1.1,0.3-1.1,0.8v0
		c0,0.6,0.4,0.8,1.9,1.2c1.8,0.5,2.8,1.1,2.8,2.7v0c0,1.8-1.4,2.8-3.3,2.8C46.7,17.1,45.4,16.7,44.3,15.7z"/>
	<path class="st2" d="M52.3,15.7l1.2-1.4c0.8,0.7,1.6,1.1,2.7,1.1c0.8,0,1.3-0.3,1.3-0.8v0c0-0.5-0.3-0.8-1.8-1.1
		c-1.8-0.5-3-1-3-2.7v0C52.7,9,54,8,55.8,8c1.3,0,2.4,0.4,3.3,1.1l-1,1.5c-0.8-0.5-1.6-0.9-2.3-0.9c-0.8,0-1.1,0.3-1.1,0.8v0
		c0,0.6,0.4,0.8,1.9,1.2c1.8,0.5,2.8,1.1,2.8,2.7v0c0,1.8-1.4,2.8-3.3,2.8C54.8,17.1,53.4,16.7,52.3,15.7z"/>
	<path class="st2" d="M61.1,8.1h2.1l2.3,3.8l2.3-3.8H70V17h-1.9v-5.8L65.6,15h-0.1L63,11.2V17h-1.9V8.1z"/>
	<path class="st2" d="M72.2,8.1h6.7v1.7h-4.8v1.8h4.2v1.7h-4.2v1.9H79V17h-6.8V8.1z"/>
	<path class="st2" d="M80.7,8.1h1.8l4.2,5.5V8.1h1.9V17H87l-4.3-5.7V17h-1.9V8.1z"/>
	<path class="st2" d="M92.9,9.9h-2.7V8.1h7.4v1.8h-2.7V17h-2V9.9z"/>
</g>
<g>
	<path class="st1" d="M19.7,22.9h4.1c1.2,0,2.1,0.4,2.7,1c0.5,0.5,0.7,1.1,0.7,1.8v0c0,1.6-1.2,2.5-2.8,2.8l3.2,4.1h-0.9l-3.1-4h0
		h-3.1v4h-0.7V22.9z M23.7,27.9c1.6,0,2.8-0.8,2.8-2.2v0c0-1.3-1-2.1-2.8-2.1h-3.3v4.4H23.7z"/>
	<path class="st1" d="M29.7,22.9h6.9v0.7h-6.2v3.8H36v0.7h-5.5v3.9h6.2v0.7h-7V22.9z"/>
	<path class="st1" d="M38.5,27.8L38.5,27.8c0-2.6,1.9-5,4.8-5c1.6,0,2.6,0.5,3.5,1.3l-0.5,0.5c-0.8-0.7-1.6-1.2-3.1-1.2
		c-2.4,0-4,2-4,4.3v0c0,2.5,1.6,4.4,4.1,4.4c1.2,0,2.4-0.5,3.1-1.1v-2.8h-3.2v-0.7h3.9v3.7c-0.9,0.8-2.2,1.5-3.8,1.5
		C40.3,32.8,38.5,30.5,38.5,27.8z"/>
	<path class="st1" d="M49.9,22.9h0.7v9.7h-0.7V22.9z"/>
	<path class="st1" d="M53,31.2l0.5-0.5c1.1,1,2,1.4,3.5,1.4c1.5,0,2.4-0.8,2.4-1.9v0c0-1-0.5-1.6-2.7-2.1c-2.3-0.5-3.3-1.3-3.3-2.7
		v0c0-1.4,1.3-2.5,3.1-2.5c1.4,0,2.3,0.4,3.3,1.2l-0.5,0.6c-0.9-0.8-1.8-1.1-2.9-1.1c-1.4,0-2.4,0.8-2.4,1.8v0c0,1,0.5,1.6,2.8,2.1
		c2.2,0.5,3.2,1.3,3.2,2.7v0c0,1.6-1.3,2.6-3.2,2.6C55.3,32.7,54.1,32.2,53,31.2z"/>
	<path class="st1" d="M64.9,23.6h-3.4v-0.7H69v0.7h-3.4v9h-0.7V23.6z"/>
	<path class="st1" d="M71.2,22.9h4.1c1.2,0,2.1,0.4,2.7,1c0.5,0.5,0.7,1.1,0.7,1.8v0c0,1.6-1.2,2.5-2.8,2.8l3.2,4.1h-0.9l-3.1-4h0
		h-3.1v4h-0.7V22.9z M75.2,27.9c1.6,0,2.8-0.8,2.8-2.2v0c0-1.3-1-2.1-2.8-2.1h-3.3v4.4H75.2z"/>
	<path class="st1" d="M84,28.8l-4.1-5.8h0.9l3.6,5.2l3.6-5.2h0.9l-4.1,5.8v3.8H84V28.8z"/>
</g>
</svg>
