<?xml version="1.0" encoding="UTF-8"?>
<svg width="90px" height="32px" viewBox="0 0 90 32" version="1.1" xmlns="http://www.w3.org/2000/svg" xmlns:xlink="http://www.w3.org/1999/xlink">
    <!-- Generator: Sketch 42 (36781) - http://www.bohemiancoding.com/sketch -->
    <title>ar_logo</title>
    <desc>Created with Sketch.</desc>
    <defs></defs>
    <g id="Page-1" stroke="none" stroke-width="1" fill="none" fill-rule="evenodd">
        <g id="ar_logo" fill-rule="nonzero">
            <path d="M1,0.4 C0.4,0.4 0,0.8 0,1.4 L0,11.8 C0,12.4 0.4,12.8 1,12.8 L9.7,12.8 C10.3,12.8 10.7,12.4 10.7,11.8 L10.7,3.4 L7.7,0.4 L1,0.4 Z" id="Shape" fill="#0AC7D9"></path>
            <g id="Group" transform="translate(7.000000, 0.000000)">
                <path d="M1.8,3.3 C1.3,3.3 0.9,2.9 0.9,2.4 L0.9,0.7 L3.5,3.3 L1.8,3.3 Z" id="Shape" fill="#FFFFFF"></path>
                <path d="M1,1 L3.2,3.2 L1.8,3.2 C1.4,3.2 1,2.9 1,2.4 L1,1 L1,1 Z M0.8,0.4 L0.8,2.4 C0.8,3 1.2,3.4 1.8,3.4 L3.8,3.4 L0.8,0.4 L0.8,0.4 Z" id="Shape" fill="#0AC7D9"></path>
            </g>
            <rect id="Rectangle-path" fill="#3D5D77" x="0" y="14.5" width="89.4" height="17.3"></rect>
            <g id="Group" transform="translate(0.000000, 3.000000)">
                <path d="M4.5,0 L6.3,0 L10.1,9 L8,9 L7.2,7 L3.4,7 L2.6,9 L0.6,9 L4.5,0 Z M6.6,5.3 L5.4,2.4 L4.2,5.3 L6.6,5.3 Z" id="Shape" fill="#FFFFFF"></path>
                <path d="M11.6,7.7 L12.8,6.3 C13.6,7 14.4,7.4 15.5,7.4 C16.3,7.4 16.8,7.1 16.8,6.6 L16.8,6.6 C16.8,6.1 16.5,5.8 15,5.5 C13.2,5 12,4.5 12,2.8 L12,2.8 C11.9,1 13.2,0 15.1,0 C16.4,0 17.5,0.4 18.4,1.1 L17.4,2.6 C16.6,2 15.8,1.7 15,1.7 C14.2,1.7 13.9,2 13.9,2.5 L13.9,2.5 C13.9,3.1 14.3,3.3 15.8,3.7 C17.6,4.2 18.6,4.8 18.6,6.4 L18.6,6.4 C18.6,8.2 17.2,9.2 15.3,9.2 C14,9.1 12.6,8.7 11.6,7.7 Z" id="Shape" fill="#3D5D77"></path>
                <path d="M19.6,7.7 L20.8,6.3 C21.6,7 22.4,7.4 23.5,7.4 C24.3,7.4 24.8,7.1 24.8,6.6 L24.8,6.6 C24.8,6.1 24.5,5.8 23,5.5 C21.2,5 20,4.5 20,2.8 L20,2.8 C20,1 21.3,0 23.1,0 C24.4,0 25.5,0.4 26.4,1.1 L25.4,2.6 C24.6,2.1 23.8,1.7 23.1,1.7 C22.3,1.7 22,2 22,2.5 L22,2.5 C22,3.1 22.4,3.3 23.9,3.7 C25.7,4.2 26.7,4.8 26.7,6.4 L26.7,6.4 C26.7,8.2 25.3,9.2 23.4,9.2 C22,9.1 20.7,8.7 19.6,7.7 Z" id="Shape" fill="#3D5D77"></path>
                <polygon id="Shape" fill="#3D5D77" points="28.4 0.1 35.1 0.1 35.1 1.8 30.3 1.8 30.3 3.6 34.5 3.6 34.5 5.3 30.3 5.3 30.3 7.2 35.1 7.2 35.1 9 28.3 9 28.3 0.1"></polygon>
                <path d="M36.3,7.7 L37.5,6.3 C38.3,7 39.1,7.4 40.2,7.4 C41,7.4 41.5,7.1 41.5,6.6 L41.5,6.6 C41.5,6.1 41.2,5.8 39.7,5.5 C37.9,5 36.7,4.5 36.7,2.8 L36.7,2.8 C36.7,1 38,0 39.8,0 C41.1,0 42.2,0.4 43.1,1.1 L42.1,2.6 C41.3,2.1 40.5,1.7 39.8,1.7 C39,1.7 38.7,2 38.7,2.5 L38.7,2.5 C38.7,3.1 39.1,3.3 40.6,3.7 C42.4,4.2 43.4,4.8 43.4,6.4 L43.4,6.4 C43.4,8.2 42,9.2 40.1,9.2 C38.7,9.1 37.4,8.7 36.3,7.7 Z" id="Shape" fill="#3D5D77"></path>
                <path d="M44.3,7.7 L45.5,6.3 C46.3,7 47.1,7.4 48.2,7.4 C49,7.4 49.5,7.1 49.5,6.6 L49.5,6.6 C49.5,6.1 49.2,5.8 47.7,5.5 C45.9,5 44.7,4.5 44.7,2.8 L44.7,2.8 C44.7,1 46,0 47.8,0 C49.1,0 50.2,0.4 51.1,1.1 L50.1,2.6 C49.3,2.1 48.5,1.7 47.8,1.7 C47,1.7 46.7,2 46.7,2.5 L46.7,2.5 C46.7,3.1 47.1,3.3 48.6,3.7 C50.4,4.2 51.4,4.8 51.4,6.4 L51.4,6.4 C51.4,8.2 50,9.2 48.1,9.2 C46.8,9.1 45.4,8.7 44.3,7.7 Z" id="Shape" fill="#3D5D77"></path>
                <polygon id="Shape" fill="#3D5D77" points="53.1 0.1 55.2 0.1 57.5 3.9 59.8 0.1 62 0.1 62 9 60.1 9 60.1 3.2 57.6 7 57.5 7 55 3.2 55 9 53.1 9"></polygon>
                <polygon id="Shape" fill="#3D5D77" points="64.2 0.1 70.9 0.1 70.9 1.8 66.1 1.8 66.1 3.6 70.3 3.6 70.3 5.3 66.1 5.3 66.1 7.2 71 7.2 71 9 64.2 9"></polygon>
                <polygon id="Shape" fill="#3D5D77" points="72.7 0.1 74.5 0.1 78.7 5.6 78.7 0.1 80.6 0.1 80.6 9 79 9 74.7 3.3 74.7 9 72.8 9 72.8 0.1"></polygon>
                <polygon id="Shape" fill="#3D5D77" points="84.9 1.9 82.2 1.9 82.2 0.1 89.6 0.1 89.6 1.9 86.9 1.9 86.9 9 84.9 9"></polygon>
            </g>
            <g id="Group" transform="translate(11.000000, 17.000000)" fill="#FFFFFF">
                <path d="M0.7,0.9 L4.8,0.9 C6,0.9 6.9,1.3 7.5,1.9 C8,2.4 8.2,3 8.2,3.7 L8.2,3.7 C8.2,5.3 7,6.2 5.4,6.5 L8.6,10.6 L7.7,10.6 L4.6,6.6 L4.6,6.6 L1.5,6.6 L1.5,10.6 L0.8,10.6 L0.8,0.9 L0.7,0.9 Z M4.7,5.9 C6.3,5.9 7.5,5.1 7.5,3.7 L7.5,3.7 C7.5,2.4 6.5,1.6 4.7,1.6 L1.4,1.6 L1.4,6 L4.7,6 L4.7,5.9 Z" id="Shape"></path>
                <polygon id="Shape" points="10.7 0.9 17.6 0.9 17.6 1.6 11.4 1.6 11.4 5.4 17 5.4 17 6.1 11.5 6.1 11.5 10 17.7 10 17.7 10.7 10.7 10.7 10.7 0.9"></polygon>
                <path d="M19.5,5.8 L19.5,5.8 C19.5,3.2 21.4,0.8 24.3,0.8 C25.9,0.8 26.9,1.3 27.8,2.1 L27.3,2.6 C26.5,1.9 25.7,1.4 24.2,1.4 C21.8,1.4 20.2,3.4 20.2,5.7 L20.2,5.7 C20.2,8.2 21.8,10.1 24.3,10.1 C25.5,10.1 26.7,9.6 27.4,9 L27.4,6.2 L24.2,6.2 L24.2,5.5 L28.1,5.5 L28.1,9.2 C27.2,10 25.9,10.7 24.3,10.7 C21.3,10.8 19.5,8.5 19.5,5.8 Z" id="Shape"></path>
                <polygon id="Shape" points="30.9 0.9 31.6 0.9 31.6 10.6 30.9 10.6"></polygon>
                <path d="M34,9.2 L34.5,8.7 C35.6,9.7 36.5,10.1 38,10.1 C39.5,10.1 40.4,9.3 40.4,8.2 L40.4,8.2 C40.4,7.2 39.9,6.6 37.7,6.1 C35.4,5.6 34.4,4.8 34.4,3.4 L34.4,3.4 C34.4,2 35.7,0.9 37.5,0.9 C38.9,0.9 39.8,1.3 40.8,2.1 L40.3,2.7 C39.4,1.9 38.5,1.6 37.4,1.6 C36,1.6 35,2.4 35,3.4 L35,3.4 C35,4.4 35.5,5 37.8,5.5 C40,6 41,6.8 41,8.2 L41,8.2 C41,9.8 39.7,10.8 37.8,10.8 C36.3,10.7 35.1,10.2 34,9.2 Z" id="Shape"></path>
                <polygon id="Shape" points="45.9 1.6 42.5 1.6 42.5 0.9 50 0.9 50 1.6 46.6 1.6 46.6 10.6 45.9 10.6 45.9 1.6"></polygon>
                <path d="M52.2,0.9 L56.3,0.9 C57.5,0.9 58.4,1.3 59,1.9 C59.5,2.4 59.7,3 59.7,3.7 L59.7,3.7 C59.7,5.3 58.5,6.2 56.9,6.5 L60.1,10.6 L59.2,10.6 L56.1,6.6 L56.1,6.6 L53,6.6 L53,10.6 L52.3,10.6 L52.3,0.9 L52.2,0.9 Z M56.2,5.9 C57.8,5.9 59,5.1 59,3.7 L59,3.7 C59,2.4 58,1.6 56.2,1.6 L52.9,1.6 L52.9,6 L56.2,6 L56.2,5.9 Z" id="Shape"></path>
                <polygon id="Shape" points="65 6.8 60.9 1 61.8 1 65.4 6.2 69 1 69.9 1 65.8 6.8 65.8 10.6 65 10.6"></polygon>
            </g>
        </g>
    </g>
</svg>