<?xml version="1.0" encoding="UTF-8"?>
<svg width="22px" height="12px" viewBox="0 0 22 12" version="1.1" xmlns="http://www.w3.org/2000/svg" xmlns:xlink="http://www.w3.org/1999/xlink">
    <!-- Generator: Sketch 43.1 (39012) - http://www.bohemiancoding.com/sketch -->
    <title>arrow-left</title>
    <desc>Created with Sketch.</desc>
    <defs></defs>
    <g id="Page-1" stroke="none" stroke-width="1" fill="none" fill-rule="evenodd">
        <g id="arrow-left" transform="translate(11.000000, 6.000000) rotate(-90.000000) translate(-11.000000, -6.000000) translate(5.000000, -5.000000)" fill-rule="nonzero" fill="#000000">
            <path d="M10.3,21.2 C9.9,21.2 9.7,21 9.6,20.9 L1.2,12.5 C0.8,12.1 0.6,11.6 0.6,11 C0.6,10.4 0.8,9.9 1.2,9.5 L9.6,1.1 C9.8,0.9 10,0.8 10.3,0.8 C10.6,0.8 10.8,0.9 11,1.1 C11.2,1.3 11.3,1.5 11.3,1.8 C11.3,2.1 11.2,2.3 11,2.5 L2.6,10.9 L2.6,10.9 C2.6,10.9 2.6,10.9 2.6,11 L2.6,11.2 L11,19.5 C11.4,19.9 11.4,20.5 11,20.9 C10.9,21 10.7,21.2 10.3,21.2 Z" id="Shape"></path>
        </g>
    </g>
</svg>
