<?xml version="1.0" encoding="UTF-8"?>
<svg width="132px" height="60px" viewBox="0 0 132 60" version="1.1" xmlns="http://www.w3.org/2000/svg" xmlns:xlink="http://www.w3.org/1999/xlink">
    <!-- Generator: Sketch 41.2 (35397) - http://www.bohemiancoding.com/sketch -->
    <title>Artboard</title>
    <desc>Created with Sketch.</desc>
    <defs></defs>
    <g id="Page-1" stroke="none" stroke-width="1" fill="none" fill-rule="evenodd">
        <g id="Artboard" fill="#BE2F3D">
            <g id="HRinfo_logo-01" transform="translate(0.000000, 6.000000)">
                <g id="Group" transform="translate(0.000000, 21.120690)">
                    <path d="M70.8190476,8.44827586 C68.2209524,8.44827586 67.3828571,9.75775862 67.3828571,13.8974138 C67.3828571,18.037069 68.2209524,19.3465517 70.8190476,19.3465517 C73.4171429,19.3465517 74.2552381,18.037069 74.2552381,13.8974138 C74.2552381,9.8 73.4590476,8.44827586 70.8190476,8.44827586 Z" id="Shape"></path>
                    <path d="M58.6666667,8.49051724 L55.9009524,8.49051724 L55.9009524,13.8551724 L58.6666667,13.8551724 C60.5942857,13.8551724 61.2228571,13.3060345 61.2228571,11.1517241 C61.2228571,9.03965517 60.5942857,8.49051724 58.6666667,8.49051724 Z" id="Shape"></path>
                    <path d="M23.5504762,8.49051724 L20.7428571,8.49051724 L20.7428571,13.3905172 L23.5504762,13.3905172 C25.52,13.3905172 26.1485714,12.8413793 26.1485714,10.8982759 C26.1485714,8.99741379 25.52,8.49051724 23.5504762,8.49051724 Z" id="Shape"></path>
                    <path d="M0,0.168965517 L0,27.7103448 L131.874286,27.7103448 L131.874286,0.168965517 L0,0.168965517 Z M26.5257143,20.9094828 L25.352381,16.5586207 C25.0171429,15.5448276 24.472381,15.1646552 23.592381,15.1646552 L20.7428571,15.1646552 L20.7428571,20.9517241 L18.7314286,20.9517241 L18.7314286,6.92758621 C20.2819048,6.75862069 21.3295238,6.75862069 23.592381,6.75862069 C26.8609524,6.75862069 28.2019048,7.68793103 28.2019048,10.8137931 C28.2019048,13.0103448 27.4895238,14.1508621 25.6457143,14.4043103 L25.6457143,14.4887931 C26.3161905,14.7 27.112381,15.2913793 27.4057143,16.5163793 L28.7047619,20.9517241 L26.5257143,20.9517241 L26.5257143,20.9094828 Z M39.0133333,12.7146552 L39.0133333,14.362069 L33.1466667,14.362069 L33.1466667,17.9525862 C33.1466667,18.9241379 33.44,19.262069 34.2361905,19.262069 L39.767619,19.262069 L39.8514286,20.825 C38.007619,20.9939655 35.8704762,20.9939655 33.9009524,20.9939655 C32.1828571,20.9939655 31.1352381,20.0224138 31.0933333,18.4594828 L31.0933333,9.37758621 C31.0933333,7.81465517 32.1828571,6.84310345 33.9009524,6.84310345 C35.912381,6.84310345 38.007619,6.84310345 39.8514286,7.01206897 L39.767619,8.575 L34.2361905,8.575 C33.44,8.575 33.1466667,8.91293103 33.1466667,9.88448276 L33.1466667,12.6724138 L39.0133333,12.6724138 L39.0133333,12.7146552 Z M46.472381,21.162931 C45.592381,21.162931 44.0419048,21.1206897 42.1142857,20.7405172 L42.24,19.2198276 C44.7542857,19.3043103 45.4666667,19.3043103 46.5142857,19.3043103 C48.567619,19.3043103 49.1542857,18.9663793 49.1542857,17.2344828 C49.1542857,15.7137931 48.6514286,15.3758621 47.52,15.0801724 L44.712381,14.2775862 C42.6590476,13.7284483 41.9466667,12.4189655 41.9466667,10.3068966 C41.9466667,7.05431034 43.3714286,6.63189655 46.5142857,6.63189655 C47.8133333,6.63189655 49.28,6.71637931 50.7047619,7.05431034 L50.5790476,8.53275862 C49.4057143,8.49051724 47.8971429,8.44827586 46.5980952,8.44827586 C44.712381,8.44827586 44,8.53275862 44,10.3913793 C44,11.8275862 44.5028571,12.2077586 45.6761905,12.5034483 L48.4419048,13.2637931 C50.5790476,13.8551724 51.2495238,15.1646552 51.2495238,17.2344828 C51.207619,20.5293103 49.8247619,21.162931 46.472381,21.162931 Z M58.96,15.587069 C57.8285714,15.587069 56.7809524,15.5025862 55.9009524,15.4181034 L55.9009524,20.9094828 L53.8895238,20.9094828 L53.8895238,6.92758621 C55.44,6.75862069 56.4457143,6.75862069 58.7085714,6.75862069 C62.1447619,6.75862069 63.2761905,7.73017241 63.2761905,11.1939655 C63.2342857,14.6577586 62.1447619,15.587069 58.96,15.587069 Z M70.8190476,21.2051724 C66.712381,21.2051724 65.287619,19.4310345 65.287619,13.9396552 C65.287619,8.44827586 66.7542857,6.67413793 70.8190476,6.67413793 C74.9257143,6.67413793 76.392381,8.44827586 76.392381,13.9396552 C76.392381,19.4310345 74.9257143,21.2051724 70.8190476,21.2051724 Z M90.1371429,20.1491379 C90.1371429,20.6560345 89.8857143,20.9517241 89.3828571,20.9517241 L87.4552381,20.9517241 C86.9942857,20.9517241 86.7847619,20.7405172 86.5752381,20.3181034 L82.2590476,10.7715517 C82.007619,10.2646552 81.5885714,9.41982759 81.4209524,8.82844828 L81.127619,8.82844828 C81.2114286,9.46206897 81.2114286,10.137931 81.2114286,10.7715517 L81.2114286,20.9517241 L79.2,20.9517241 L79.2,7.73017241 C79.2,7.22327586 79.4933333,6.92758621 79.9542857,6.92758621 L81.7980952,6.92758621 C82.2590476,6.92758621 82.4685714,7.1387931 82.6780952,7.5612069 L86.8685714,16.8543103 C87.12,17.4034483 87.5390476,18.2482759 87.832381,18.9241379 L88.1257143,18.9241379 C88.0838095,18.2060345 88.0419048,17.487931 88.0419048,16.7698276 L88.0419048,6.92758621 L90.0533333,6.92758621 L90.0533333,20.1491379 L90.1371429,20.1491379 Z M97.4285714,21.162931 C96.5485714,21.162931 94.9980952,21.1206897 93.0704762,20.7405172 L93.1961905,19.2198276 C95.7104762,19.3043103 96.4228571,19.3043103 97.4704762,19.3043103 C99.5238095,19.3043103 100.110476,18.9663793 100.110476,17.2344828 C100.110476,15.7137931 99.607619,15.3758621 98.4761905,15.0801724 L95.6685714,14.2775862 C93.6152381,13.7284483 92.9028571,12.4189655 92.9028571,10.3068966 C92.9028571,7.05431034 94.327619,6.63189655 97.4704762,6.63189655 C98.7695238,6.63189655 100.23619,6.71637931 101.660952,7.05431034 L101.535238,8.53275862 C100.361905,8.49051724 98.8533333,8.44827586 97.5542857,8.44827586 C95.6685714,8.44827586 94.9561905,8.53275862 94.9561905,10.3913793 C94.9561905,11.8275862 95.4590476,12.2077586 96.632381,12.5034483 L99.3980952,13.2637931 C101.535238,13.8551724 102.205714,15.1646552 102.205714,17.2344828 C102.16381,20.5293103 100.780952,21.162931 97.4285714,21.162931 Z M112.598095,12.7146552 L112.598095,14.362069 L106.731429,14.362069 L106.731429,17.9525862 C106.731429,18.9241379 107.024762,19.262069 107.820952,19.262069 L113.352381,19.262069 L113.43619,20.825 C111.592381,20.9939655 109.455238,20.9939655 107.485714,20.9939655 C105.767619,20.9939655 104.72,20.0224138 104.678095,18.4594828 L104.678095,9.37758621 C104.678095,7.81465517 105.767619,6.84310345 107.485714,6.84310345 C109.497143,6.84310345 111.592381,6.84310345 113.43619,7.01206897 L113.352381,8.575 L107.820952,8.575 C107.024762,8.575 106.731429,8.91293103 106.731429,9.88448276 L106.731429,12.6724138 L112.598095,12.6724138 L112.598095,12.7146552 Z" id="Shape"></path>
                </g>
                <g id="Group">
                    <polygon id="Shape" points="10.8952381 15.4603448 8.71619048 15.4603448 8.71619048 8.3637931 2.13714286 8.3637931 2.13714286 15.4603448 0 15.4603448 0 0.380172414 2.17904762 0.380172414 2.17904762 6.46293103 8.71619048 6.46293103 8.71619048 0.380172414 10.8952381 0.380172414"></polygon>
                    <path d="M23.4666667,15.4603448 L21.7904762,15.4603448 L21.6228571,13.9818966 C20.072381,15.1224138 18.647619,15.7137931 17.0971429,15.7137931 C15.2114286,15.7137931 14.2057143,14.7 14.2057143,12.7568966 L14.2057143,4.77327586 L16.3009524,4.77327586 L16.3009524,12.1655172 C16.3428571,13.475 16.7619048,13.9396552 17.8933333,13.9396552 C18.9409524,13.9396552 19.9466667,13.4327586 21.4133333,12.5034483 L21.4133333,4.77327586 L23.5085714,4.77327586 L23.5085714,15.4603448 L23.4666667,15.4603448 Z" id="Shape"></path>
                    <path d="M42.5333333,7.43448276 L42.5333333,15.4181034 L40.48,15.4181034 L40.48,8.06810345 C40.4380952,6.84310345 40.0609524,6.29396552 38.9295238,6.29396552 C37.9238095,6.29396552 37.2114286,6.71637931 35.6609524,7.85689655 L35.6609524,15.4603448 L33.6495238,15.4603448 L33.6495238,8.06810345 C33.6495238,6.75862069 33.1466667,6.29396552 32.0990476,6.29396552 C31.1352381,6.29396552 30.4228571,6.71637931 28.8304762,7.85689655 L28.8304762,15.4603448 L26.7352381,15.4603448 L26.7352381,4.77327586 L28.4533333,4.77327586 L28.5790476,6.37844828 C30.0038095,5.15344828 31.3447619,4.47758621 32.8114286,4.47758621 C34.2361905,4.47758621 35.1580952,5.1112069 35.4933333,6.3362069 C36.9180952,5.1112069 38.2590476,4.47758621 39.6419048,4.47758621 C41.527619,4.47758621 42.5333333,5.53362069 42.5333333,7.43448276 Z" id="Shape"></path>
                    <path d="M54.4761905,8.02586207 L54.4761905,15.4603448 L52.8419048,15.4603448 L52.5904762,13.7706897 C51.7942857,14.5732759 50.2857143,15.6715517 48.3580952,15.6715517 C46.4304762,15.6715517 45.1314286,14.6155172 45.1314286,12.6724138 L45.1314286,11.5741379 C45.1314286,9.88448276 46.2209524,8.91293103 48.1066667,8.91293103 L52.3809524,8.91293103 L52.3809524,8.06810345 C52.3390476,6.75862069 51.92,6.3362069 50.2857143,6.3362069 C49.2380952,6.3362069 47.4361905,6.46293103 45.8019048,6.58965517 L45.592381,5.02672414 C47.1009524,4.77327586 49.2380952,4.51982759 50.7466667,4.51982759 C53.1771429,4.47758621 54.4761905,5.32241379 54.4761905,8.02586207 Z M47.2685714,12.3767241 C47.2685714,13.4327586 47.7295238,13.8551724 48.8190476,13.8551724 C49.7828571,13.8551724 51.1657143,13.4327586 52.3809524,12.3344828 L52.3809524,10.4336207 L48.5257143,10.4336207 C47.5619048,10.4758621 47.2685714,10.9827586 47.2685714,11.7853448 L47.2685714,12.3767241 Z" id="Shape"></path>
                    <path d="M67.1314286,7.43448276 L67.1314286,15.4181034 L65.0361905,15.4181034 L65.0361905,8.06810345 C65.0361905,6.71637931 64.7009524,6.29396552 63.6952381,6.29396552 C62.5219048,6.29396552 61.3904762,6.88534483 59.7561905,7.89913793 L59.7980952,15.4603448 L57.7028571,15.4603448 L57.7028571,4.77327586 L59.4628571,4.77327586 L59.5885714,6.37844828 C61.1390476,5.19568966 62.7314286,4.47758621 64.2819048,4.47758621 C66.1257143,4.47758621 67.1314286,5.53362069 67.1314286,7.43448276 Z" id="Shape"></path>
                    <path d="M71.9085714,0.253448276 C72.327619,0.253448276 72.4952381,0.506896552 72.4952381,0.844827586 L72.4952381,2.06982759 C72.4952381,2.49224138 72.2857143,2.70344828 71.9085714,2.70344828 L70.9028571,2.70344828 C70.4838095,2.70344828 70.3161905,2.49224138 70.3161905,2.06982759 L70.3161905,0.844827586 C70.3161905,0.464655172 70.5257143,0.253448276 70.9028571,0.253448276 L71.9085714,0.253448276 Z M70.4,15.4603448 L70.4,4.77327586 L72.4952381,4.77327586 L72.4952381,15.4603448 L70.4,15.4603448 L70.4,15.4603448 Z" id="Shape"></path>
                    <path d="M78.7390476,12.3767241 C78.7390476,13.3905172 79.1161905,13.7284483 80.1219048,13.7284483 L81.672381,13.7284483 L81.9238095,15.3758621 C81.2114286,15.587069 79.9961905,15.6715517 79.4095238,15.6715517 C77.607619,15.6715517 76.6438095,14.6155172 76.6438095,12.6724138 L76.6438095,6.42068966 L74.7161905,6.42068966 L74.7161905,4.9 L76.6438095,4.77327586 L76.6438095,1.64741379 L78.7390476,1.64741379 L78.7390476,4.77327586 L82.007619,4.77327586 L82.007619,6.42068966 L78.7390476,6.42068966 L78.7390476,12.3767241 Z" id="Shape"></path>
                    <path d="M92.9866667,8.02586207 L92.9866667,15.4603448 L91.352381,15.4603448 L91.1009524,13.7706897 C90.3047619,14.5732759 88.7961905,15.6715517 86.8685714,15.6715517 C84.9409524,15.6715517 83.6419048,14.6155172 83.6419048,12.6724138 L83.6419048,11.5741379 C83.6419048,9.88448276 84.7314286,8.91293103 86.6171429,8.91293103 L90.8495238,8.91293103 L90.8495238,8.06810345 C90.807619,6.75862069 90.3885714,6.3362069 88.7542857,6.3362069 C87.7066667,6.3362069 85.9047619,6.46293103 84.2704762,6.58965517 L84.0609524,5.02672414 C85.5695238,4.77327586 87.7066667,4.51982759 89.2152381,4.51982759 C91.687619,4.47758621 92.9866667,5.32241379 92.9866667,8.02586207 Z M85.7790476,12.3767241 C85.7790476,13.4327586 86.24,13.8551724 87.3295238,13.8551724 C88.2933333,13.8551724 89.6761905,13.4327586 90.8914286,12.3344828 L90.8914286,10.4336207 L87.0361905,10.4336207 C86.072381,10.4758621 85.7790476,10.9827586 85.7790476,11.7853448 L85.7790476,12.3767241 Z" id="Shape"></path>
                    <path d="M102.708571,6.50517241 L102.038095,6.50517241 C100.906667,6.50517241 99.8590476,6.96982759 98.2247619,7.73017241 L98.2247619,15.4603448 L96.1295238,15.4603448 L96.1295238,4.77327586 L97.7638095,4.77327586 L97.9733333,6.42068966 C99.4819048,5.23793103 100.990476,4.47758621 102.415238,4.47758621 L102.918095,4.47758621 L102.708571,6.50517241 Z" id="Shape"></path>
                    <path d="M106.56381,0.253448276 C106.982857,0.253448276 107.150476,0.506896552 107.150476,0.844827586 L107.150476,2.06982759 C107.150476,2.49224138 106.940952,2.70344828 106.56381,2.70344828 L105.558095,2.70344828 C105.139048,2.70344828 104.971429,2.49224138 104.971429,2.06982759 L104.971429,0.844827586 C104.971429,0.464655172 105.180952,0.253448276 105.558095,0.253448276 L106.56381,0.253448276 Z M105.013333,15.4603448 L105.013333,4.77327586 L107.108571,4.77327586 L107.108571,15.4603448 L105.013333,15.4603448 L105.013333,15.4603448 Z" id="Shape"></path>
                    <path d="M119.219048,8.02586207 L119.219048,15.4603448 L117.584762,15.4603448 L117.333333,13.7706897 C116.537143,14.5732759 115.028571,15.6715517 113.100952,15.6715517 C111.173333,15.6715517 109.874286,14.6155172 109.874286,12.6724138 L109.874286,11.5741379 C109.874286,9.88448276 110.96381,8.91293103 112.849524,8.91293103 L117.081905,8.91293103 L117.081905,8.06810345 C117.04,6.75862069 116.620952,6.3362069 114.986667,6.3362069 C113.939048,6.3362069 112.137143,6.46293103 110.502857,6.58965517 L110.293333,5.02672414 C111.801905,4.77327586 113.939048,4.51982759 115.447619,4.51982759 C117.92,4.47758621 119.219048,5.32241379 119.219048,8.02586207 Z M112.011429,12.3767241 C112.011429,13.4327586 112.472381,13.8551724 113.561905,13.8551724 C114.525714,13.8551724 115.908571,13.4327586 117.12381,12.3344828 L117.12381,10.4336207 L113.268571,10.4336207 C112.304762,10.4758621 112.011429,10.9827586 112.011429,11.7853448 L112.011429,12.3767241 Z" id="Shape"></path>
                    <path d="M131.832381,7.43448276 L131.832381,15.4181034 L129.737143,15.4181034 L129.737143,8.06810345 C129.737143,6.71637931 129.401905,6.29396552 128.39619,6.29396552 C127.222857,6.29396552 126.091429,6.88534483 124.457143,7.89913793 L124.499048,15.4603448 L122.40381,15.4603448 L122.40381,4.77327586 L124.16381,4.77327586 L124.289524,6.37844828 C125.84,5.19568966 127.432381,4.47758621 128.982857,4.47758621 C130.868571,4.47758621 131.832381,5.53362069 131.832381,7.43448276 Z" id="Shape"></path>
                </g>
            </g>
        </g>
    </g>
</svg>