<?xml version="1.0" encoding="UTF-8"?>
<svg width="25px" height="22px" viewBox="0 0 25 22" version="1.1" xmlns="http://www.w3.org/2000/svg" xmlns:xlink="http://www.w3.org/1999/xlink">
    <!-- Generator: Sketch 42 (36781) - http://www.bohemiancoding.com/sketch -->
    <title>Shape</title>
    <desc>Created with Sketch.</desc>
    <defs></defs>
    <g id="Page-1" stroke="none" stroke-width="1" fill="none" fill-rule="evenodd">
        <path d="M12,11 L8.75,7.75 L8,8.5 L12.5,13 L17,8.5 L16.25,7.75 L13,11 L13,0 L12,0 L12,11 Z M14,6 L19.4,6 L23.775,13 L17,13 L17,15.002 C17,16.102 16.106,17 15.003,17 L9.998,17 C8.896,17 8.001,16.105 8.001,15.002 L8.001,13 L1.226,13 L5.601,6 L11.001,6 L11.001,5 L5.001,5 L0.001,13 L0.001,22 L25.001,22 L25.001,13 L20.001,5 L14.001,5 L14.001,6 L14,6 Z M18,14 L24,14 L24,21 L1,21 L1,14 L7,14 L7,15.5 C7,16.881 8.115,18 9.496,18 L15.504,18 C16.883,18 18,16.89 18,15.5 L18,14 Z" id="Shape" fill="#1565B5" fill-rule="nonzero"></path>
    </g>
</svg>